<?xml version="1.0" encoding="UTF-8"?>
<svg version="1.1" xmlns="http://www.w3.org/2000/svg" width="1640" height="416">
<path d="M0 0 C541.2 0 1082.4 0 1640 0 C1640 137.28 1640 274.56 1640 416 C1098.8 416 557.6 416 0 416 C0 278.72 0 141.44 0 0 Z " fill="#FEFEFE" transform="translate(0,0)"/>
<path d="M0 0 C403.26 0 806.52 0 1222 0 C1222 19.47 1222 38.94 1222 59 C818.74 59 415.48 59 0 59 C0 39.53 0 20.06 0 0 Z " fill="#1C2D64" transform="translate(398,270)"/>
<path d="M0 0 C3.20663312 2.89896043 4.96575902 5.54597024 6.6875 9.5 C7.10386719 10.4384375 7.52023438 11.376875 7.94921875 12.34375 C9.90328605 17.28339969 10.15931814 21.73977728 10.2109375 27.02734375 C10.23904315 28.64128554 10.26770778 30.25521767 10.296875 31.86914062 C10.33779276 34.38972306 10.3747106 36.91013257 10.40136719 39.4309082 C10.51873446 49.66513174 11.0837834 59.10074032 14 69 C14.36480469 70.24394531 14.72960937 71.48789062 15.10546875 72.76953125 C19.3451239 84.69260476 24.31552338 96.63462733 32.65234375 106.30078125 C34 108 34 108 35 111 C38.34786823 113.31775493 42.01577017 113.62412926 46 114 C47.59727472 112.40272528 47.40151316 110.8514138 47.5625 108.625 C47.52334454 98.65340986 41.96644187 89.40146981 37.859375 80.53857422 C37.31796875 79.35158936 37.31796875 79.35158936 36.765625 78.140625 C36.43852539 77.43196289 36.11142578 76.72330078 35.77441406 75.99316406 C34.53221868 72.79603825 34.50036696 70.37252304 35 67 C36.14961491 64.47778453 37.47571398 62.33406297 39 60 C39.66 60 40.32 60 41 60 C41.43828125 60.89976562 41.8765625 61.79953125 42.328125 62.7265625 C46.34597315 70.9019253 50.55819267 78.94978246 54.9375 86.9375 C55.44893555 87.87424561 55.96037109 88.81099121 56.48730469 89.77612305 C58.84216164 94.08452573 61.21191528 98.38238145 63.62890625 102.65625 C69.56192237 113.28226279 72.7939141 123.16810765 74.9375 135.1875 C77.60201197 149.01539833 84.56292139 159.34845203 96.125 167.203125 C105.75287472 173.2205467 113.51741168 175.34939508 125 174 C134.65401416 171.63518385 140.02483075 164.94327297 145 156.75 C156.10453433 136.97597228 160.78081622 114.02568722 165.42337036 92.05776978 C172.98301032 56.28690143 180.95113252 25.78421984 208 0 C208 4.00198299 206.16508564 6.61050525 204.25 10 C196.61391506 23.89448238 192.65102908 36.4168611 196.97265625 52.0703125 C199.75789041 60.01299548 203.98084935 64.81732217 211.38671875 68.7890625 C219.0238339 72.32793499 226.51354142 73.4993436 234.84790039 74.09082031 C240.15735264 74.56211362 243.59569082 75.95129556 248 79 C249.25 81.9375 249.25 81.9375 249 85 C247.125 87.9375 247.125 87.9375 244 90 C239.03146606 90.56615907 234.87147424 89.01265966 230.4375 86.9375 C223.01972795 83.77335661 214.08462814 83.76181246 206.2890625 85.66015625 C204.0021241 86.58696813 202.06449524 87.65044669 200 89 C198.88238281 89.7115625 198.88238281 89.7115625 197.7421875 90.4375 C188.09618035 97.2387525 182.12959316 107.11289075 178 118 C177.6803125 118.8146875 177.360625 119.629375 177.03125 120.46875 C172.87449114 132.93902659 173.34810212 148.14390152 179 160 C182.3196258 166.61704675 186.1430226 171.38006949 193.125 174.3125 C205.30709589 176.47383959 215.97027747 174.63446945 226.3125 167.6875 C227.89592547 166.48540985 229.46027395 165.25757729 231 164 C231.62519531 163.49984375 232.25039063 162.9996875 232.89453125 162.484375 C243.79283544 152.74232431 247.31086082 139.6767039 250.47851562 125.94628906 C254.25402815 109.74736312 261.96342113 95.91021423 270.57299805 81.83056641 C274.8286635 74.78009469 278.42514908 67.41270178 282 60 C285.24739835 63.13310069 287.37715594 65.72935773 289 70 C288.65359486 75.93446701 285.95619903 81.09194676 283.5625 86.4375 C277.19663286 99.72862629 277.19663286 99.72862629 278 114 C283.2898897 113.34789161 285.02789282 111.28647669 288.30029297 107.3046875 C290.94442557 103.71942295 293.04749814 99.96622482 295.0625 96 C295.48732666 95.17765869 295.91215332 94.35531738 296.34985352 93.50805664 C300.2093587 85.88085181 303.28603282 78.09681903 306 70 C306.31582031 69.08992188 306.63164062 68.17984375 306.95703125 67.2421875 C311.06002533 54.67045195 311.34456699 41.72617373 311.38085938 28.63671875 C311.42515905 19.08570782 311.70086295 10.89623941 318.25 3.4375 C318.8275 2.963125 319.405 2.48875 320 2 C324.84431836 13.33727994 324.40618556 25.76576172 324.375 37.875 C324.3737915 38.74060547 324.37258301 39.60621094 324.37133789 40.49804688 C324.19465628 87.14199079 304.85895758 127.01645706 272.19140625 159.8203125 C256.16451634 175.08608823 236.74393332 186.46876306 216 194 C214.86820313 194.44085938 213.73640625 194.88171875 212.5703125 195.3359375 C185.45843099 205.29910108 152.11674069 206.57320011 124 200 C123.02740234 199.7831958 123.02740234 199.7831958 122.03515625 199.56201172 C80.82452504 190.20255498 44.38965618 163.81470516 21.38378906 128.52050781 C13.51380762 115.96612835 7.7444164 103.01005353 3 89 C2.58105469 87.79730469 2.16210938 86.59460938 1.73046875 85.35546875 C-3.10030602 70.68221655 -4.51896329 56.51089168 -4.375 41.1875 C-4.37200897 40.35737396 -4.36901794 39.52724792 -4.36593628 38.67196655 C-4.3109277 25.66627694 -4.15442757 12.46328272 0 0 Z " fill="#1B2C64" transform="translate(31,189)"/>
<path d="M0 0 C1.10730469 -0.02449219 2.21460938 -0.04898438 3.35546875 -0.07421875 C11.92040118 -0.10477142 16.62930362 1.62786908 23.75 6.375 C24.4925 5.75625 25.235 5.1375 26 4.5 C32.11328339 -0.2239008 37.01874475 0.03998133 44.5625 0.0625 C46.16448242 0.03833008 46.16448242 0.03833008 47.79882812 0.01367188 C55.45597905 0.00893647 60.56396055 0.68456669 66.5625 5.75 C70.93469206 10.99663048 71.03421626 15.65673635 70.97705078 22.2043457 C70.97734283 23.08289719 70.97763489 23.96144867 70.97793579 24.86662292 C70.97654595 27.76144393 70.96100096 30.65600538 70.9453125 33.55078125 C70.94158114 35.56145589 70.93873475 37.57213234 70.93673706 39.58280945 C70.92911028 44.86822553 70.90946992 50.15353125 70.8873291 55.43890381 C70.86685015 60.83490506 70.85773096 66.23092419 70.84765625 71.62695312 C70.82622317 82.20969164 70.79104874 92.79231937 70.75 103.375 C63.49 103.375 56.23 103.375 48.75 103.375 C48.42 74.995 48.09 46.615 47.75 17.375 C43.79 17.375 39.83 17.375 35.75 17.375 C35.42 46.085 35.09 74.795 34.75 104.375 C27.16 104.375 19.57 104.375 11.75 104.375 C11.42 75.665 11.09 46.955 10.75 17.375 C6.79 17.375 2.83 17.375 -1.25 17.375 C-1.58 46.085 -1.91 74.795 -2.25 104.375 C-9.51 104.375 -16.77 104.375 -24.25 104.375 C-24.31780147 92.61370478 -24.37283107 80.85253956 -24.40543652 69.09109306 C-24.4210862 63.62966521 -24.44231195 58.1683781 -24.47631836 52.70703125 C-24.50893635 47.43561547 -24.52685827 42.164335 -24.53463173 36.89282608 C-24.54017083 34.88259883 -24.55098734 32.8723789 -24.56719017 30.86220932 C-24.5889967 28.04453327 -24.59196555 25.22741495 -24.59057617 22.40966797 C-24.601362 21.58032242 -24.61214783 20.75097687 -24.6232605 19.89649963 C-24.58936967 13.53632098 -23.1143486 9.47836765 -18.8125 4.625 C-12.93938237 -0.53188377 -7.53964044 0.0086563 0 0 Z " fill="#FBB144" transform="translate(686.25,149.625)"/>
<path d="M0 0 C1.13258743 -0.01210762 1.13258743 -0.01210762 2.28805542 -0.02445984 C3.89025578 -0.03830341 5.49248567 -0.04902435 7.09472656 -0.05688477 C9.52467444 -0.07400726 11.95322898 -0.11787672 14.3828125 -0.16210938 C29.07244432 -0.31078851 29.07244432 -0.31078851 35.4296875 4.23828125 C39.76063389 9.67972671 40.58127758 13.9433002 40.60668945 20.70385742 C40.61654625 21.84103714 40.61654625 21.84103714 40.62660217 23.00119019 C40.64631807 25.51121117 40.65799546 28.02117229 40.66796875 30.53125 C40.67204428 31.390086 40.6761198 32.248922 40.68031883 33.13378334 C40.70117474 37.68171574 40.71547714 42.22961803 40.72485352 46.77758789 C40.73590218 51.46384158 40.77028542 56.14961839 40.81002522 60.83570385 C40.83623618 64.44837801 40.84454943 68.06093946 40.84813499 71.67370033 C40.85299131 73.40038578 40.864578 75.12706652 40.88317299 76.85365868 C40.90765513 79.27806143 40.90658313 81.7012426 40.8996582 84.12573242 C40.91246826 84.83096542 40.92527832 85.53619843 40.93847656 86.26280212 C40.88296063 91.63049679 39.41842334 95.84165854 36.4296875 100.23828125 C29.02493645 106.13185862 21.66151865 105.52156287 12.68920898 105.58837891 C11.06666676 105.60489086 9.44419584 105.63211814 7.82202148 105.67041016 C-9.17189839 106.06896237 -9.17189839 106.06896237 -13.99832153 101.84564209 C-21.40719808 94.27006546 -20.13742738 84.19746427 -20.06640625 74.38671875 C-20.06656141 72.64132629 -20.06805314 70.89593349 -20.07081604 69.15054321 C-20.07219608 65.50417734 -20.05970594 61.8582067 -20.03686523 58.21191406 C-20.0084394 53.5469193 -20.01123463 48.88257851 -20.02395535 44.21753502 C-20.03092083 40.61777189 -20.02311403 37.01815901 -20.01069832 33.41841507 C-20.00619524 31.69848838 -20.00583699 29.9785455 -20.00976372 28.2586174 C-20.01268562 25.85355463 -19.99612465 23.44938344 -19.97436523 21.04443359 C-19.97886688 20.33986526 -19.98336853 19.63529694 -19.98800659 18.90937805 C-19.90640456 13.46021264 -18.57839092 9.37158505 -14.81640625 5.375 C-14.21957031 4.89675781 -13.62273437 4.41851562 -13.0078125 3.92578125 C-12.40839844 3.43464844 -11.80898437 2.94351563 -11.19140625 2.4375 C-7.62115264 -0.20362737 -4.28196585 0.04331989 0 0 Z " fill="#FBB041" transform="translate(1504.5703125,149.76171875)"/>
<path d="M0 0 C2.29626419 0.04735572 4.58788958 0.04107759 6.88452148 0.02783203 C14.4805661 0.05738481 20.77107112 0.25198994 27.23413086 4.67236328 C32.3712433 9.94466289 33.53410789 14.99317884 33.5246582 22.18139648 C33.53137543 22.92030121 33.53809265 23.65920593 33.54501343 24.42050171 C33.56395641 26.85478507 33.56791587 29.28879212 33.57006836 31.72314453 C33.57649942 33.42319348 33.58322801 35.12324132 33.59024048 36.82328796 C33.60220438 40.38490361 33.60592227 43.94642233 33.60473633 47.50805664 C33.60453332 52.05753348 33.63182066 56.6063844 33.66628075 61.15571308 C33.68859049 64.66717852 33.69257261 68.17849438 33.69151688 71.69002342 C33.69386727 73.36645856 33.70265901 75.04289816 33.71818161 76.71926308 C33.87057329 94.87852284 33.87057329 94.87852284 27.75131226 101.20552063 C22.96568655 105.45995973 18.91924944 105.84619834 12.78491211 105.91064453 C12.05346481 105.91871628 11.32201752 105.92678802 10.56840515 105.93510437 C9.01926021 105.94892691 7.47008505 105.95965725 5.92089844 105.9675293 C4.34691355 105.9790206 2.77296676 105.99942732 1.19921875 106.02905273 C-15.15991618 106.33687205 -15.15991618 106.33687205 -21.76586914 101.67236328 C-26.40802294 95.95894322 -26.9154755 91.42310262 -26.92700195 84.27685547 C-26.93196686 83.53809677 -26.93693176 82.79933807 -26.94204712 82.03819275 C-26.95662963 79.5985317 -26.96346483 77.15893572 -26.96899414 74.71923828 C-26.97474959 73.01776122 -26.98050728 71.31628417 -26.98626709 69.61480713 C-26.9967665 66.04723815 -27.00261584 62.47969163 -27.00610352 58.91210938 C-27.01158058 54.35488354 -27.03559616 49.79795761 -27.06407547 45.24082565 C-27.08275988 41.72508902 -27.08791057 38.20942374 -27.08943939 34.69364166 C-27.09245426 33.01442071 -27.10044317 31.33520067 -27.11362457 29.65602875 C-27.1308042 27.29894136 -27.12877604 24.94257492 -27.12231445 22.58544922 C-27.13152924 21.90048874 -27.14074402 21.21552826 -27.15023804 20.5098114 C-27.10063489 14.69274388 -25.80221848 9.21099417 -22.10400391 4.60058594 C-15.22524851 -0.27668736 -8.10513764 -0.17882172 0 0 Z " fill="#FBB042" transform="translate(1037.765869140625,149.32763671875)"/>
<path d="M0 0 C48 0 48 0 55 4 C59.23723043 9.46379713 60.12545947 13.28357552 60.17700195 20.09838867 C60.18685875 21.17704697 60.18685875 21.17704697 60.19691467 22.27749634 C60.21662561 24.65765492 60.22830702 27.03775039 60.23828125 29.41796875 C60.24235678 30.2326745 60.2464323 31.04738026 60.25063133 31.88677406 C60.27148544 36.20128754 60.28578844 40.5157693 60.29516602 44.83032227 C60.30621249 49.27445116 60.34059356 53.71807688 60.38033772 58.16202831 C60.40655839 61.58941033 60.4148628 65.01667362 60.41844749 68.44414711 C60.42330156 70.08151957 60.43488178 71.71888715 60.45348549 73.35616112 C60.62321277 89.28727166 60.62321277 89.28727166 56 96 C52.33933539 99.66066461 50.18493669 100.27168777 45 102 C30.15 102 15.3 102 0 102 C0 68.34 0 34.68 0 0 Z " fill="#FBB041" transform="translate(1234,152)"/>
<path d="M0 0 C0.72578751 -0.0038269 1.45157501 -0.00765381 2.19935608 -0.01159668 C3.72463377 -0.01430182 5.24995897 -0.00703907 6.77514648 0.00976562 C9.08879831 0.03116806 11.39933492 0.00993644 13.71289062 -0.015625 C22.70280791 -0.03243573 29.74136889 0.22874652 36.53515625 6.84375 C40.11634672 12.76648809 40.44771106 18.69191845 40.38720703 25.40405273 C40.38749908 26.26338913 40.38779114 27.12272552 40.38809204 28.00810242 C40.38670711 30.82712163 40.37118556 33.64587114 40.35546875 36.46484375 C40.35173564 38.42781937 40.34889008 40.39079687 40.34689331 42.35377502 C40.33928032 47.50435589 40.31965194 52.65482283 40.29748535 57.80535889 C40.27697656 63.06748921 40.26788085 68.32963805 40.2578125 73.59179688 C40.23640379 83.9049978 40.20229612 94.2181144 40.16015625 104.53125 C36.51433938 104.56012512 32.86855162 104.57800585 29.22265625 104.59375 C27.6612793 104.60631836 27.6612793 104.60631836 26.06835938 104.61914062 C24.58432617 104.62397461 24.58432617 104.62397461 23.0703125 104.62890625 C21.69564819 104.63676147 21.69564819 104.63676147 20.29321289 104.64477539 C18.16015625 104.53125 18.16015625 104.53125 17.16015625 103.53125 C17.07171832 101.08294574 17.04486873 98.66304401 17.0625 96.21484375 C17.06391495 95.48378922 17.0653299 94.75273468 17.06678772 93.99952698 C17.07240217 91.65589368 17.08495703 89.31235461 17.09765625 86.96875 C17.10266939 85.38346492 17.10723262 83.79817834 17.11132812 82.21289062 C17.12152704 78.31894457 17.14109938 74.42520323 17.16015625 70.53125 C12.21015625 70.53125 7.26015625 70.53125 2.16015625 70.53125 C2.16015625 81.75125 2.16015625 92.97125 2.16015625 104.53125 C-5.09984375 104.53125 -12.35984375 104.53125 -19.83984375 104.53125 C-19.95294441 92.67412464 -20.04461774 80.81735936 -20.09890461 68.95981598 C-20.12496369 63.45347502 -20.16029484 57.94752325 -20.21704102 52.44140625 C-20.27149161 47.12456961 -20.30129203 41.80810659 -20.31422997 36.49101257 C-20.32344638 34.4656537 -20.34144409 32.44031456 -20.36849403 30.41511536 C-20.40495766 27.57122104 -20.40978186 24.72885725 -20.4074707 21.88476562 C-20.42544708 21.05325989 -20.44342346 20.22175415 -20.46194458 19.36505127 C-20.40913578 13.33300967 -18.73950345 9.16664737 -14.83984375 4.53125 C-10.40427233 0.75542982 -5.68528755 -0.06744979 0 0 Z " fill="#FBB144" transform="translate(1330.83984375,149.46875)"/>
<path d="M0 0 C0.7314473 -0.00807175 1.46289459 -0.01614349 2.21650696 -0.02445984 C3.7656519 -0.03828238 5.31482706 -0.04901272 6.86401367 -0.05688477 C8.43799856 -0.06837607 10.01194535 -0.08878279 11.58569336 -0.1184082 C29.05463861 -0.44711011 29.05463861 -0.44711011 34.55078125 4.23828125 C39.14110235 9.74502172 40.27219258 14.46662616 40.1184082 21.5 C40.11913834 22.38874313 40.11986847 23.27748627 40.12062073 24.19316101 C40.11716207 27.10467479 40.07838343 30.01455009 40.0390625 32.92578125 C40.02972823 34.95458096 40.02261502 36.98339199 40.0176239 39.01220703 C39.99860252 44.33237234 39.9495435 49.6518469 39.894104 54.97174072 C39.84280659 60.40814878 39.82008748 65.84466928 39.79492188 71.28125 C39.7414199 81.93394489 39.65352367 92.58594736 39.55078125 103.23828125 C32.62078125 103.23828125 25.69078125 103.23828125 18.55078125 103.23828125 C18.55078125 92.01828125 18.55078125 80.79828125 18.55078125 69.23828125 C12.94078125 69.23828125 7.33078125 69.23828125 1.55078125 69.23828125 C1.55078125 80.78828125 1.55078125 92.33828125 1.55078125 104.23828125 C-5.70921875 104.23828125 -12.96921875 104.23828125 -20.44921875 104.23828125 C-20.51712247 92.91994975 -20.57210866 81.6017546 -20.60465527 70.28326511 C-20.62027969 65.02706365 -20.64145898 59.77100936 -20.67553711 54.51489258 C-20.70824563 49.43797811 -20.72609599 44.36120478 -20.73385048 39.28419304 C-20.73937339 37.35180377 -20.75015815 35.4194218 -20.76640892 33.48709297 C-20.78833608 30.77060663 -20.79117932 28.05469603 -20.78979492 25.33813477 C-20.80058075 24.54762726 -20.81136658 23.75711975 -20.82247925 22.94265747 C-20.78781052 16.61402703 -19.76514261 10.143713 -15.73046875 5.08203125 C-15.14265625 4.63859375 -14.55484375 4.19515625 -13.94921875 3.73828125 C-13.36140625 3.27421875 -12.77359375 2.81015625 -12.16796875 2.33203125 C-8.31175559 -0.12192258 -4.40362125 0.04626361 0 0 Z " fill="#FBB142" transform="translate(792.44921875,149.76171875)"/>
<path d="M0 0 C47 0 47 0 55 5 C59.69295227 10.87248303 59.61280008 18.37619516 59.5 25.5625 C59.51546875 26.55185547 59.5309375 27.54121094 59.546875 28.56054688 C59.51342463 34.8617599 58.65425832 39.76460407 55 45 C52.75 47 52.75 47 51 48 C51.804375 48.804375 52.60875 49.60875 53.4375 50.4375 C57 54 57 54 57.12025452 55.94252014 C57.11803391 56.79301437 57.11581329 57.64350861 57.11352539 58.51977539 C57.11344986 59.48069595 57.11337433 60.44161652 57.11329651 61.43165588 C57.10813522 62.476436 57.10297394 63.52121613 57.09765625 64.59765625 C57.0962413 65.66165146 57.09482635 66.72564667 57.09336853 67.82188416 C57.08775064 71.23545083 57.07519511 74.648953 57.0625 78.0625 C57.05748731 80.37044176 57.052924 82.67838455 57.04882812 84.98632812 C57.03862433 90.65759721 57.01905243 96.32872601 57 102 C49.74 102 42.48 102 35 102 C35 88.14 35 74.28 35 60 C30.71 60 26.42 60 22 60 C22 73.86 22 87.72 22 102 C14.74 102 7.48 102 0 102 C0 68.34 0 34.68 0 0 Z " fill="#FBB143" transform="translate(530,152)"/>
<path d="M0 0 C0.91644287 0.00523682 1.83288574 0.01047363 2.77709961 0.01586914 C4.26113281 0.02070313 4.26113281 0.02070313 5.77514648 0.02563477 C6.81606445 0.03401367 7.85698242 0.04239258 8.92944336 0.05102539 C10.49662109 0.05779297 10.49662109 0.05779297 12.09545898 0.06469727 C14.68600996 0.07652627 17.27644895 0.0930085 19.86694336 0.11352539 C19.93659848 11.43182421 19.98983333 22.75007163 20.02237988 34.06854153 C20.0380043 39.32474299 20.05918359 44.58079728 20.09326172 49.83691406 C20.12597023 54.91382853 20.1438206 59.99060186 20.15157509 65.0676136 C20.157098 67.00000287 20.16788276 68.93238484 20.18413353 70.86471367 C20.20606069 73.58120001 20.20890393 76.29711061 20.20751953 79.01367188 C20.21830536 79.80417938 20.22909119 80.59468689 20.24020386 81.40914917 C20.20226839 88.33410956 18.90637692 94.59106809 14.49194336 100.05102539 C9.64209297 103.86162212 5.26291069 104.43786232 -0.77758789 104.48461914 C-1.50620529 104.49364761 -2.23482269 104.50267609 -2.98551941 104.51197815 C-4.5226941 104.52643801 -6.05992974 104.53535676 -7.59716797 104.5390625 C-9.92856592 104.55093884 -12.25729615 104.60014106 -14.58813477 104.65063477 C-28.78549224 104.81476056 -28.78549224 104.81476056 -33.54127884 100.81722927 C-38.74166814 95.25117387 -39.71855588 88.23004272 -39.5871582 80.921875 C-39.58774231 80.05249298 -39.58832642 79.18311096 -39.58892822 78.28738403 C-39.58616692 75.44645648 -39.55516876 72.60661077 -39.52368164 69.76586914 C-39.51621228 67.78333611 -39.51052263 65.80079565 -39.50653076 63.81825256 C-39.49132921 58.62479928 -39.45209497 53.43180036 -39.40771484 48.23852539 C-39.3666435 42.9293431 -39.34849449 37.62008671 -39.32836914 32.31079102 C-39.28559499 21.91147172 -39.21529033 11.5126076 -39.13305664 1.11352539 C-31.87305664 1.11352539 -24.61305664 1.11352539 -17.13305664 1.11352539 C-16.80305664 29.49352539 -16.47305664 57.87352539 -16.13305664 87.11352539 C-11.84305664 87.44352539 -7.55305664 87.77352539 -3.13305664 88.11352539 C-3.13527725 87.02580338 -3.13749786 85.93808136 -3.13978577 84.81739807 C-3.16001642 74.58999028 -3.17502841 64.36258653 -3.18486881 54.13516331 C-3.19009784 48.87655875 -3.19719583 43.61797029 -3.20849609 38.359375 C-3.2193243 33.28899412 -3.22533333 28.21862877 -3.22793388 23.14823723 C-3.22978825 21.20925591 -3.23340909 19.27027548 -3.2387867 17.33130074 C-3.24599624 14.62530779 -3.24704762 11.91937983 -3.24658203 9.21337891 C-3.25017731 8.40345993 -3.25377258 7.59354095 -3.25747681 6.75907898 C-3.24513161 0.17271217 -3.24513161 0.17271217 0 0 Z " fill="#FBB144" transform="translate(1126.133056640625,150.886474609375)"/>
<path d="M0 0 C2.23256584 0.03435841 4.46117121 0.02061607 6.69384766 0.0012207 C14.19722238 0.00845439 20.36575225 0.20336144 26.73681641 4.59692383 C31.69240645 10.69611157 31.88344731 15.69597205 31.8503418 23.31274414 C31.85048782 24.1911496 31.85063385 25.06955505 31.8507843 25.97457886 C31.85008826 28.87476073 31.84231026 31.77487819 31.83447266 34.67504883 C31.83260738 36.68715378 31.83118399 38.69925918 31.83018494 40.71136475 C31.82636838 46.00497697 31.81654543 51.29856171 31.80548096 56.59216309 C31.79524833 61.99478789 31.79068334 67.39741713 31.78564453 72.80004883 C31.77492241 83.39902117 31.75733255 93.99796591 31.73681641 104.59692383 C24.47681641 104.59692383 17.21681641 104.59692383 9.73681641 104.59692383 C9.40681641 75.88692383 9.07681641 47.17692383 8.73681641 17.59692383 C4.77681641 17.59692383 0.81681641 17.59692383 -3.26318359 17.59692383 C-3.59318359 46.30692383 -3.92318359 75.01692383 -4.26318359 104.59692383 C-11.52318359 104.59692383 -18.78318359 104.59692383 -26.26318359 104.59692383 C-26.35366776 92.87017545 -26.42700535 81.14366016 -26.47043228 69.41664124 C-26.49127839 63.97090654 -26.51954189 58.52542373 -26.56494141 53.07983398 C-26.60850495 47.82136571 -26.63234309 42.56313925 -26.64269257 37.30450439 C-26.65006505 35.30149531 -26.66446181 33.29849899 -26.68610382 31.29559326 C-26.71527738 28.48298881 -26.71913376 25.67137476 -26.71728516 22.85864258 C-26.73166626 22.03648758 -26.74604736 21.21433258 -26.76086426 20.36726379 C-26.71603896 14.03569012 -25.19698138 8.57029657 -20.64984512 3.96182251 C-14.86028563 -0.83359772 -7.10389777 -0.12108029 0 0 Z " fill="#FBB143" transform="translate(1187.26318359375,149.403076171875)"/>
<path d="M0 0 C2.21457991 -0.00967065 4.42821729 -0.04068829 6.64257812 -0.07226562 C8.06444765 -0.07879992 9.48632378 -0.08404871 10.90820312 -0.08789062 C12.19307617 -0.09723633 13.47794922 -0.10658203 14.80175781 -0.11621094 C19.51486554 0.33973508 23.48842071 1.56692977 27.19335938 4.66992188 C31.85892824 10.76978222 32.78034779 15.3944018 32.71337891 22.9777832 C32.71367096 23.84658112 32.71396301 24.71537903 32.71426392 25.61050415 C32.7128742 28.47286072 32.69732982 31.33495471 32.68164062 34.19726562 C32.67790922 36.18552 32.67506285 38.17377621 32.67306519 40.16203308 C32.66543876 45.388266 32.64579871 50.61438728 32.62365723 55.84057617 C32.6031775 61.17625417 32.59405892 66.51195025 32.58398438 71.84765625 C32.56255192 82.31190583 32.52737779 92.77604334 32.48632812 103.24023438 C25.22632813 103.24023438 17.96632813 103.24023438 10.48632812 103.24023438 C10.15632813 74.86023438 9.82632812 46.48023438 9.48632812 17.24023438 C5.19632813 17.24023438 0.90632813 17.24023438 -3.51367188 17.24023438 C-3.84367187 45.62023437 -4.17367188 74.00023437 -4.51367188 103.24023438 C-11.77367187 103.24023438 -19.03367187 103.24023438 -26.51367188 103.24023438 C-26.60416346 91.77425389 -26.67749786 80.30851191 -26.72092056 68.84225464 C-26.74176486 63.5175852 -26.77002497 58.19317348 -26.81542969 52.86865234 C-26.85899982 47.72689289 -26.88283273 42.58538079 -26.89318085 37.44345093 C-26.90055217 35.48509835 -26.91494664 33.52675879 -26.9365921 31.56851196 C-26.96577455 28.81816717 -26.96962169 26.06883492 -26.96777344 23.31835938 C-26.98215454 22.51490585 -26.99653564 21.71145233 -27.01135254 20.88365173 C-26.96627027 14.65375213 -25.39892965 9.28701267 -21.03082657 4.67437744 C-14.67327579 -0.84600019 -7.93686907 0.02097851 0 0 Z " fill="#FBB041" transform="translate(1587.513671875,149.759765625)"/>
<path d="M0 0 C1.37998743 -0.01148238 2.75993176 -0.03187501 4.13964844 -0.06152344 C12.27293163 -0.23614952 18.52350155 -0.31713896 25.39575195 4.29516602 C30.23177555 9.50319142 30.5304428 13.02689868 30.45825195 19.92016602 C30.43762695 22.68391602 30.41700195 25.44766602 30.39575195 28.29516602 C23.79575195 28.29516602 17.19575195 28.29516602 10.39575195 28.29516602 C9.90075195 23.84016602 9.90075195 23.84016602 9.39575195 19.29516602 C8.33974818 18.0164622 8.33974818 18.0164622 5.92700195 18.16235352 C4.92668945 18.16493164 3.92637695 18.16750977 2.89575195 18.17016602 C1.3952832 18.16629883 1.3952832 18.16629883 -0.13549805 18.16235352 C-2.54824427 18.0164622 -2.54824427 18.0164622 -3.60424805 19.29516602 C-3.70324328 20.8447216 -3.73504329 22.39870274 -3.73706055 23.95141602 C-3.73834961 24.89114258 -3.73963867 25.83086914 -3.7409668 26.79907227 C-3.73516602 28.28213867 -3.73516602 28.28213867 -3.72924805 29.79516602 C-3.73311523 30.78387695 -3.73698242 31.77258789 -3.7409668 32.79125977 C-3.7390332 34.20084961 -3.7390332 34.20084961 -3.73706055 35.63891602 C-3.73593262 36.50709961 -3.73480469 37.3752832 -3.73364258 38.26977539 C-3.82840175 40.29120755 -3.82840175 40.29120755 -2.60424805 41.29516602 C-0.96750484 41.40418216 0.67347245 41.45098452 2.3137207 41.47094727 C3.32112305 41.49479492 4.32852539 41.51864258 5.36645508 41.54321289 C7.49125838 41.58578636 9.61631675 41.61724918 11.74145508 41.63696289 C17.92186835 41.80591252 21.69073119 42.16392827 26.39575195 46.29516602 C31.52561851 51.85252146 32.70854492 56.7264848 32.73168945 64.15844727 C32.73834625 64.90926071 32.74500305 65.66007416 32.75186157 66.43363953 C32.76195567 68.01790938 32.7666796 69.60222146 32.76635742 71.18652344 C32.77071989 73.5900008 32.80704046 75.99162373 32.8449707 78.39477539 C32.96521096 94.57451997 32.96521096 94.57451997 26.91259766 100.82739258 C22.17264961 105.04491321 18.17494703 105.46812289 12.0949707 105.53344727 C11.02397881 105.54555489 11.02397881 105.54555489 9.93135071 105.5579071 C8.42089245 105.57172482 6.91040327 105.58245731 5.39990234 105.59033203 C3.8607463 105.60184853 2.3216301 105.62229549 0.78271484 105.65185547 C-1.44680791 105.69467111 -3.67514572 105.71071923 -5.9050293 105.72094727 C-6.58648514 105.73845535 -7.26794098 105.75596344 -7.970047 105.77400208 C-12.97452128 105.75149656 -15.73406751 104.3886813 -19.60424805 101.29516602 C-25.1141761 95.32607729 -25.89807182 90.28964518 -25.72924805 82.48266602 C-25.68799805 79.78079102 -25.64674805 77.07891602 -25.60424805 74.29516602 C-18.67424805 74.29516602 -11.74424805 74.29516602 -4.60424805 74.29516602 C-4.27424805 78.58516602 -3.94424805 82.87516602 -3.60424805 87.29516602 C1.01575195 87.29516602 5.63575195 87.29516602 10.39575195 87.29516602 C10.72575195 79.37516602 11.05575195 71.45516602 11.39575195 63.29516602 C3.85795962 63.16455669 3.85795962 63.16455669 -3.68041992 63.08740234 C-10.49947495 62.8865372 -15.4058364 61.89530547 -20.60424805 57.29516602 C-24.8851947 51.80677287 -25.76652554 47.59902712 -25.80737305 40.81079102 C-25.81307312 40.07697205 -25.81877319 39.34315308 -25.824646 38.58709717 C-25.83408673 37.03374671 -25.8406263 35.48037631 -25.84448242 33.92700195 C-25.85415611 31.56758949 -25.88517355 29.20906044 -25.91674805 26.84985352 C-25.92328193 25.33683783 -25.92853089 23.82381594 -25.93237305 22.31079102 C-25.94471985 21.61262268 -25.95706665 20.91445435 -25.9697876 20.19512939 C-25.94409515 14.45502164 -24.72949142 9.7198755 -20.88549805 5.33422852 C-20.29768555 4.86758789 -19.70987305 4.40094727 -19.10424805 3.92016602 C-18.51643555 3.43805664 -17.92862305 2.95594727 -17.32299805 2.45922852 C-12.29814176 -0.94396961 -5.81308285 0.03364132 0 0 Z " fill="#FBB042" transform="translate(423.604248046875,149.704833984375)"/>
<path d="M0 0 C7.26 0 14.52 0 22 0 C24.8125 9.4375 24.8125 9.4375 25.67895508 12.35327148 C27.34935505 17.93893855 29.11996791 23.48135936 31 29 C33.73497587 22.9998837 35.72707053 16.85306387 37.6875 10.5625 C38.00783203 9.54478516 38.32816406 8.52707031 38.65820312 7.47851562 C39.44201796 4.98668637 40.22145392 2.49348045 41 0 C47.93 0 54.86 0 62 0 C60.87528345 8.99773243 60.87528345 8.99773243 59.80078125 12.0859375 C59.56383545 12.78025879 59.32688965 13.47458008 59.08276367 14.18994141 C58.82857666 14.91101074 58.57438965 15.63208008 58.3125 16.375 C58.04993408 17.14376465 57.78736816 17.9125293 57.5168457 18.70458984 C56.4051502 21.95873567 55.27552064 25.2065763 54.14746094 28.45507812 C53.32118743 30.84294154 52.50418224 33.2338426 51.6875 35.625 C51.43331299 36.34606934 51.17912598 37.06713867 50.91723633 37.81005859 C48.04726041 46.21993703 47.43608489 52.09449897 50.60546875 60.48828125 C50.88594559 61.27212692 51.16642242 62.0559726 51.45539856 62.86357117 C52.35021454 65.35264025 53.26829032 67.83234999 54.1875 70.3125 C54.78606986 71.96492885 55.38308876 73.61792039 55.97851562 75.27148438 C58.06239651 81.04142665 60.18155465 86.79798505 62.31884766 92.54833984 C62.68413574 93.53656738 63.04942383 94.52479492 63.42578125 95.54296875 C63.73555908 96.37207764 64.04533691 97.20118652 64.36450195 98.05541992 C65 100 65 100 65 102 C57.41 102 49.82 102 42 102 C34.50854303 79.94967381 34.50854303 79.94967381 32.5078125 70.984375 C32.18296243 69.01305294 32.18296243 69.01305294 31 68 C30.83918945 68.53778076 30.67837891 69.07556152 30.51269531 69.62963867 C27.38077931 80.09877159 24.23112236 90.56098929 21 101 C13.41 101 5.82 101 -2 101 C0.24788732 90.88450704 0.24788732 90.88450704 1.98828125 86.3984375 C2.36283447 85.42060303 2.7373877 84.44276855 3.12329102 83.43530273 C3.71194946 81.92045288 3.71194946 81.92045288 4.3125 80.375 C5.12154565 78.24936468 5.92884085 76.12306228 6.734375 73.99609375 C7.12302734 72.97112793 7.51167969 71.94616211 7.91210938 70.89013672 C9.34321154 67.08820955 10.73752286 63.27767951 12.0625 59.4375 C12.63677734 57.79587891 12.63677734 57.79587891 13.22265625 56.12109375 C14.67396817 50.29396699 14.08971067 45.39579341 12.20703125 39.75390625 C11.82603271 38.59358887 11.44503418 37.43327148 11.05249023 36.23779297 C10.43869507 34.41852295 10.43869507 34.41852295 9.8125 32.5625 C8.98661526 30.05610947 8.16109257 27.5495996 7.3359375 25.04296875 C6.73410645 23.2319165 6.73410645 23.2319165 6.12011719 21.38427734 C4.68864073 17.05927154 3.29979758 12.72221758 1.9375 8.375 C1.55464844 7.16585937 1.17179688 5.95671875 0.77734375 4.7109375 C0 2 0 2 0 0 Z " fill="#FBB142" transform="translate(845,152)"/>
<path d="M0 0 C15.51 0 31.02 0 47 0 C47 5.94 47 11.88 47 18 C38.75 18 30.5 18 22 18 C22 25.59 22 33.18 22 41 C29.59 41 37.18 41 45 41 C45 46.94 45 52.88 45 59 C37.41 59 29.82 59 22 59 C22 67.25 22 75.5 22 84 C29.92 84 37.84 84 46 84 C46 89.94 46 95.88 46 102 C30.82 102 15.64 102 0 102 C0 68.34 0 34.68 0 0 Z " fill="#FBB143" transform="translate(603,152)"/>
<path d="M0 0 C15.18 0 30.36 0 46 0 C46 6.6 46 13.2 46 20 C38.08 20 30.16 20 22 20 C22 27.92 22 35.84 22 44 C29.26 44 36.52 44 44 44 C44 49.94 44 55.88 44 62 C36.74 62 29.48 62 22 62 C22 75.53 22 89.06 22 103 C14.74 103 7.48 103 0 103 C0 69.01 0 35.02 0 0 Z " fill="#FBB144" transform="translate(952,151)"/>
<path d="M0 0 C18.15 0 36.3 0 55 0 C55 5.94 55 11.88 55 18 C49.72 18 44.44 18 39 18 C39 45.72 39 73.44 39 102 C31.74 102 24.48 102 17 102 C17 74.28 17 46.56 17 18 C11.39 18 5.78 18 0 18 C0 12.06 0 6.12 0 0 Z " fill="#FBB042" transform="translate(1381,152)"/>
<path d="M0 0 C17.82 0 35.64 0 54 0 C54 5.94 54 11.88 54 18 C48.72 18 43.44 18 38 18 C38 45.39 38 72.78 38 101 C30.74 101 23.48 101 16 101 C16 73.61 16 46.22 16 18 C10.72 18 5.44 18 0 18 C0 12.06 0 6.12 0 0 Z " fill="#FBB040" transform="translate(465,152)"/>
<path d="M0 0 C0.66 0 1.32 0 2 0 C3.90711684 3.49876204 5.80910499 7.00026175 7.70678711 10.50415039 C8.66327838 12.26783744 9.62358266 14.02945492 10.58398438 15.79101562 C19.38094959 32.04928118 27.88799045 48.69726838 23.0859375 67.59765625 C20.62862653 74.37507843 17.32887197 80.25953934 13 86 C12.38382813 86.84175781 11.76765625 87.68351562 11.1328125 88.55078125 C7.63269222 93.22002884 7.63269222 93.22002884 6 95 C5.34 95 4.68 95 4 95 C3.34 85.76 2.68 76.52 2 67 C0.33083908 68.66916092 0.81230714 70.73105513 0.75390625 73.0234375 C0.72103516 74.044375 0.68816406 75.0653125 0.65429688 76.1171875 C0.59332193 78.28114935 0.53600307 80.44521745 0.48242188 82.609375 C0.44826172 83.63289063 0.41410156 84.65640625 0.37890625 85.7109375 C0.3538501 86.65243652 0.32879395 87.59393555 0.30297852 88.56396484 C0 91 0 91 -2 94 C-13.21509674 84.89129198 -20.25650017 74.38105574 -22.30859375 59.80859375 C-23.12130403 44.85965009 -16.06937906 29.80210111 -9.06738281 16.95849609 C-7.93093573 14.87327685 -6.81915423 12.77612924 -5.7109375 10.67578125 C-3.82480457 7.10756591 -1.91835109 3.55099032 0 0 Z " fill="#04714A" transform="translate(190,54)"/>
<path d="M0 0 C22.59442791 13.67557479 34.93075288 41.23875559 41.5 66 C45.87276141 84.80400984 44.77258915 109.34330433 40 128 C39.34 128.33 38.68 128.66 38 129 C37.5875 127.77925781 37.175 126.55851562 36.75 125.30078125 C32.19539965 112.18577549 26.77946025 96.7662082 14.625 88.8125 C13.89539063 88.32394531 13.16578125 87.83539063 12.4140625 87.33203125 C4.97041835 83.22477777 -2.68729744 83.13862338 -11 84 C-14.178191 85.09369402 -17.10498722 86.43092761 -20.13671875 87.875 C-24.63354519 89.64182949 -29.26025051 89.97559166 -34 89 C-35.78515625 87.6875 -35.78515625 87.6875 -37 86 C-37.65044248 79.92920354 -37.65044248 79.92920354 -35.6875 77.125 C-32.8939907 75.26266046 -30.23758191 74.85173017 -26.97265625 74.60546875 C-14.26200604 73.53670146 -3.31001318 72.06870597 7 64 C7.66 64 8.32 64 9 64 C9.26554687 63.44699219 9.53109375 62.89398438 9.8046875 62.32421875 C11 60 11 60 12.5078125 57.58203125 C17.57333312 48.90702129 18.49158344 40.808364 17 31 C15.84014009 26.66069953 14.14988762 22.93337834 12 19 C11.43410156 17.93523437 10.86820313 16.87046875 10.28515625 15.7734375 C7.33635174 10.4694609 4.48340045 6.07581859 0 2 C0 1.34 0 0.68 0 0 Z " fill="#1C2E65" transform="translate(142,189)"/>
<path d="M0 0 C4.40089289 1.99171431 7.06704598 4.87930338 10.3125 8.375 C10.87517578 8.9525 11.43785156 9.53 12.01757812 10.125 C13.61328125 11.8359375 13.61328125 11.8359375 16 15 C15.64916992 17.19775391 15.64916992 17.19775391 15 19 C17.31 19.33 19.62 19.66 22 20 C22 21.65 22 23.3 22 25 C19.69 25 17.38 25 15 25 C15 36.88 15 48.76 15 61 C13.35 61 11.7 61 10 61 C10 49.12 10 37.24 10 25 C8.35 25 6.7 25 5 25 C5 36.88 5 48.76 5 61 C3.35 61 1.7 61 0 61 C-1 60 -1 60 -1.09765625 56.40234375 C-1.0909822 54.91403133 -1.07902183 53.42573568 -1.0625 51.9375 C-1.05798828 51.17888672 -1.05347656 50.42027344 -1.04882812 49.63867188 C-1.0370068 47.75908129 -1.01907078 45.87953101 -1 44 C-3.97 44 -6.94 44 -10 44 C-10.0825 44.9075 -10.165 45.815 -10.25 46.75 C-11.12131932 50.52571704 -11.81249593 51.81907617 -15 54 C-18.5625 54.5 -18.5625 54.5 -22 54 C-24.28412799 52.23164284 -24.83469473 50.90639292 -25.34765625 48.09375 C-25.50601506 45.91733146 -25.47186649 44.13213745 -25 42 C-22.75 39.5 -22.75 39.5 -20 38 C-18.68 38 -17.36 38 -16 38 C-16 33.71 -16 29.42 -16 25 C-20.95 25 -25.9 25 -31 25 C-30.8453125 27.536875 -30.8453125 27.536875 -30.6875 30.125 C-30.6875 33.96308026 -30.7560015 36.51552844 -33.1875 39.5625 C-35.84946467 41.86953605 -37.75351977 42.81598956 -41 44 C-39.54300902 45.79275845 -38.08436345 47.58417229 -36.625 49.375 C-35.40683594 50.87160156 -35.40683594 50.87160156 -34.1640625 52.3984375 C-32.09734084 54.96360506 -32.09734084 54.96360506 -30 57 C-30.375 59.125 -30.375 59.125 -31 61 C-32.98 61.495 -32.98 61.495 -35 62 C-40.62766038 55.57009867 -45.8845206 49.00735451 -50.6875 41.9375 C-51.13335449 41.29482178 -51.57920898 40.65214355 -52.03857422 39.98999023 C-53.11028835 38.37985206 -54.0660219 36.69375354 -55 35 C-54.67 34.01 -54.34 33.02 -54 32 C-51.8125 31.75 -51.8125 31.75 -49 32 C-47.33333333 33.33333333 -45.66666667 34.66666667 -44 36 C-41.33071879 36.41870553 -41.33071879 36.41870553 -39 36 C-36.36476862 33.36476862 -37.37082847 28.70828466 -37 25 C-44.26 25 -51.52 25 -59 25 C-59 36.88 -59 48.76 -59 61 C-60.65 60.67 -62.3 60.34 -64 60 C-64 56.37 -64 52.74 -64 49 C-65.98 49.495 -65.98 49.495 -68 50 C-74.75497253 50.77516078 -74.75497253 50.77516078 -78.0390625 48.73046875 C-80.48792886 46.65951387 -82.55601196 44.88797608 -84 42 C-84.07194869 39.11629667 -84.09291708 36.25760336 -84.0625 33.375 C-84.05798828 32.57320313 -84.05347656 31.77140625 -84.04882812 30.9453125 C-84.03703168 28.96350994 -84.01909605 26.98174567 -84 25 C-85.65 25 -87.3 25 -89 25 C-89.042721 23.33388095 -89.04063832 21.66617115 -89 20 C-86.85944217 17.85944217 -81.95051636 18.81358814 -78.98217773 18.79467773 C-78.03593536 18.78477814 -77.08969299 18.77487854 -76.11477661 18.76467896 C-72.97107489 18.73296197 -69.82735802 18.70826639 -66.68359375 18.68359375 C-64.51025488 18.66303302 -62.33692009 18.64203679 -60.16358948 18.62062073 C-54.43103326 18.56530905 -48.69844042 18.51594003 -42.96582031 18.46777344 C-37.12106042 18.41762465 -31.276354 18.3619041 -25.43164062 18.30664062 C-13.95447272 18.19894787 -2.47725847 18.09752775 9 18 C8.38511719 17.33613281 7.77023437 16.67226563 7.13671875 15.98828125 C6.32847656 15.10527344 5.52023437 14.22226562 4.6875 13.3125 C3.88699219 12.44238281 3.08648438 11.57226562 2.26171875 10.67578125 C0.18451663 8.21829688 -1.43831576 5.80496684 -3 3 C-2.01 2.01 -1.02 1.02 0 0 Z " fill="#233469" transform="translate(1040,336)"/>
<path d="M0 0 C7.59 0 15.18 0 23 0 C23 33.99 23 67.98 23 103 C15.41 103 7.82 103 0 103 C0 69.01 0 35.02 0 0 Z " fill="#FBB349" transform="translate(1446,151)"/>
<path d="M0 0 C2.60546875 2.328125 2.60546875 2.328125 5.1875 5.25 C6.04730469 6.20390625 6.90710938 7.1578125 7.79296875 8.140625 C10 11 10 11 12 16 C36.255 16.495 36.255 16.495 61 17 C61 18.65 61 20.3 61 22 C60.505 22.495 60.505 22.495 60 23 C57.69 23 55.38 23 53 23 C53 34.88 53 46.76 53 59 C51.35 58.67 49.7 58.34 48 58 C48 46.45 48 34.9 48 23 C46.35 23 44.7 23 43 23 C43 34.88 43 46.76 43 59 C41.35 59 39.7 59 38 59 C37 58 37 58 36.9375 55.4375 C36.958125 54.633125 36.97875 53.82875 37 53 C35.515 53.495 35.515 53.495 34 54 C29.70531498 54.59314706 25.70899193 54.9419399 21.82421875 52.80078125 C18.5624498 50.11978276 16.71072623 48.24782888 16 44 C15.61017543 39.78989468 15.72248993 37.53446384 17.6875 33.75 C20.13322252 30.84157322 21.4679683 29.38209936 25 28 C33.54251012 27.27125506 33.54251012 27.27125506 37 29 C37 27.02 37 25.04 37 23 C28.42 23 19.84 23 11 23 C11 34.88 11 46.76 11 59 C9.35 59 7.7 59 6 59 C5 58 5 58 4.88647461 56.05053711 C4.89171143 55.2178833 4.89694824 54.38522949 4.90234375 53.52734375 C4.90556641 52.62822266 4.90878906 51.72910156 4.91210938 50.80273438 C4.92467773 49.38444336 4.92467773 49.38444336 4.9375 47.9375 C4.94201172 46.98810547 4.94652344 46.03871094 4.95117188 45.06054688 C4.9629989 42.70696935 4.97947975 40.35351523 5 38 C3.08302063 38.14166357 1.16642277 38.28849584 -0.75 38.4375 C-1.81734375 38.51871094 -2.8846875 38.59992188 -3.984375 38.68359375 C-6.43679962 38.94090773 -8.63921291 39.31812218 -11 40 C-7.12281347 46.13532814 -2.91706956 51.66105169 2 57 C1.34 57.99 0.68 58.98 0 60 C-5.44298794 59.33485001 -7.30283888 57.08211666 -10.7265625 53.015625 C-13.50117781 49.33520744 -16.07009487 45.56335467 -18.5625 41.6875 C-19.0164917 40.99390381 -19.4704834 40.30030762 -19.93823242 39.58569336 C-20.35177979 38.92190674 -20.76532715 38.25812012 -21.19140625 37.57421875 C-21.56467041 36.98213623 -21.93793457 36.39005371 -22.32250977 35.7800293 C-23.1881632 33.50562239 -22.77979849 32.25989391 -22 30 C-19.6875 29.75 -19.6875 29.75 -17 30 C-15.375 31.9375 -15.375 31.9375 -14 34 C-12.515 34.495 -12.515 34.495 -11 35 C-10.67 31.04 -10.34 27.08 -10 23 C-17.26 23 -24.52 23 -32 23 C-31.67 21.02 -31.34 19.04 -31 17 C-19.12 16.67 -7.24 16.34 5 16 C1.05615701 11.47795749 1.05615701 11.47795749 -2.8984375 6.96533203 C-3.62933594 6.12010986 -3.62933594 6.12010986 -4.375 5.2578125 C-5.12910156 4.39373779 -5.12910156 4.39373779 -5.8984375 3.51220703 C-7 2 -7 2 -7 0 C-4.1873938 -1.4063031 -2.97418522 -0.981352 0 0 Z " fill="#233469" transform="translate(868,338)"/>
<path d="M0 0 C1.80859375 1.56640625 1.80859375 1.56640625 3.4375 3.5625 C4.03691406 4.28308594 4.63632813 5.00367188 5.25390625 5.74609375 C6.86821294 7.8298856 8.37028865 9.96171693 9.875 12.125 C13.67157049 17.31330523 18.91135445 20.97045148 25 23 C32.92982916 23.81463785 39.77280064 23.87254128 46.484375 19.25 C50.88788012 15.31146126 54.62437781 10.82676021 58.3359375 6.2421875 C62.48576193 1.14735354 62.48576193 1.14735354 65 -1 C67.75 -0.75 67.75 -0.75 70 0 C70.75 1.5625 70.75 1.5625 71 4 C68.86701367 8.87539733 65.79652464 12.43792655 62.3125 16.4375 C46.01358965 35.40202113 38.03962703 61.32025885 33.640625 85.54296875 C33.42921875 86.35378906 33.2178125 87.16460937 33 88 C32.01 88.495 32.01 88.495 31 89 C30.84966309 88.36199463 30.69932617 87.72398926 30.54443359 87.06665039 C24.16283623 60.20654085 15.72779639 36.48540314 -0.828125 14.15625 C-1.29428223 13.52348145 -1.76043945 12.89071289 -2.24072266 12.23876953 C-3.14448001 11.02196465 -4.06038469 9.81406251 -4.98974609 8.61669922 C-8.02410913 4.55451009 -8.02410913 4.55451009 -7.8984375 1.6640625 C-5.97988086 -1.88943805 -3.40152932 -1.03123287 0 0 Z " fill="#FBB143" transform="translate(160,176)"/>
<path d="M0 0 C0.495 0.99 0.495 0.99 1 2 C-1.46153846 5.81538462 -1.46153846 5.81538462 -4.1875 6.75 C-5.0846875 6.87375 -5.0846875 6.87375 -6 7 C-5.7834375 8.8871875 -5.7834375 8.8871875 -5.5625 10.8125 C-5.48128906 11.52019531 -5.40007812 12.22789062 -5.31640625 12.95703125 C-5.02829265 15.19396393 -5.02829265 15.19396393 -4 18 C-1.03 18.33 1.94 18.66 5 19 C5.042721 20.66611905 5.04063832 22.33382885 5 24 C4.505 24.495 4.505 24.495 4 25 C2.02 25 0.04 25 -2 25 C-2 36.88 -2 48.76 -2 61 C-3.65 61 -5.3 61 -7 61 C-8 60 -8 60 -8.09765625 56.40234375 C-8.0909822 54.91403133 -8.07902183 53.42573568 -8.0625 51.9375 C-8.05798828 51.17888672 -8.05347656 50.42027344 -8.04882812 49.63867188 C-8.0370068 47.75908129 -8.01907078 45.87953101 -8 44 C-10.97 44 -13.94 44 -17 44 C-17.0825 44.9075 -17.165 45.815 -17.25 46.75 C-18.12131932 50.52571704 -18.81249593 51.81907617 -22 54 C-25.5625 54.5 -25.5625 54.5 -29 54 C-31.81883236 51.7267481 -31.97853245 50.1475894 -32.5 46.5625 C-32 43 -32 43 -29.75 40.0625 C-27 38 -27 38 -23 38 C-23 33.71 -23 29.42 -23 25 C-27.62 25 -32.24 25 -37 25 C-37 36.88 -37 48.76 -37 61 C-38.65 61 -40.3 61 -42 61 C-43 60 -43 60 -43.09765625 57.71484375 C-43.08605469 56.79832031 -43.07445312 55.88179688 -43.0625 54.9375 C-43.05347656 54.01839844 -43.04445313 53.09929687 -43.03515625 52.15234375 C-43.02355469 51.44207031 -43.01195312 50.73179687 -43 50 C-43.54269531 50.27714844 -44.08539062 50.55429687 -44.64453125 50.83984375 C-45.71767578 51.38318359 -45.71767578 51.38318359 -46.8125 51.9375 C-47.87404297 52.47697266 -47.87404297 52.47697266 -48.95703125 53.02734375 C-53.21992866 55.05690676 -57.33403533 55.80994104 -62 55 C-65.02391552 53.26092412 -67.41748661 51.16502678 -69 48 C-69.23529412 41.64705882 -69.23529412 41.64705882 -68.25 38.9375 C-67.74072416 36.71011258 -67.74072416 36.71011258 -69.9375 34.25 C-72.69351974 29.90718102 -72.72451427 28.07159991 -72 23 C-69.9375 20 -69.9375 20 -67 18 C-63.5 17.375 -63.5 17.375 -60 18 C-57 20.125 -57 20.125 -55 23 C-54.9375 26.1875 -54.9375 26.1875 -56 29 C-58.0625 30.375 -58.0625 30.375 -60 31 C-60.33 28.69 -60.66 26.38 -61 24 C-62.32 24.33 -63.64 24.66 -65 25 C-65.08226668 28.04386724 -64.97608217 30.07175348 -64 33 C-60.7 33.33 -57.4 33.66 -54 34 C-54 35.65 -54 37.3 -54 39 C-57.96 40.98 -57.96 40.98 -62 43 C-61.67 44.65 -61.34 46.3 -61 48 C-54.02142573 48.56967953 -50.95413612 46.67950871 -45.33984375 42.875 C-43.17340491 39.84324885 -43.42263061 36.41534435 -43.3125 32.8125 C-43.27833984 32.06291016 -43.24417969 31.31332031 -43.20898438 30.54101562 C-43.12665706 28.69453162 -43.06164719 26.84729006 -43 25 C-45.64 25 -48.28 25 -51 25 C-50.125 20.125 -50.125 20.125 -49 19 C-46.19023482 18.83982834 -43.40226404 18.74049466 -40.58984375 18.68359375 C-39.32679161 18.6524221 -39.32679161 18.6524221 -38.03822327 18.62062073 C-35.33806821 18.55503188 -32.63781283 18.49619724 -29.9375 18.4375 C-28.11131759 18.39432363 -26.28514546 18.35070964 -24.45898438 18.30664062 C-19.97276008 18.19934106 -15.4864345 18.09810034 -11 18 C-11.32234619 17.21753906 -11.64469238 16.43507813 -11.97680664 15.62890625 C-13.39983241 11.97270452 -13.73964454 8.86172309 -13 5 C-9.30474011 -0.54288984 -6.16029988 -0.52205931 0 0 Z " fill="#24356A" transform="translate(1159,336)"/>
<path d="M0 0 C15.76717479 5.98059266 33.44211482 16.58490746 41 32 C41.33902344 32.61101562 41.67804688 33.22203125 42.02734375 33.8515625 C44.2206686 38.44036196 44.27274536 43.11250728 44.3125 48.125 C44.31813965 48.80643066 44.3237793 49.48786133 44.32958984 50.18994141 C44.26794356 54.48114983 43.56002915 58.00980592 42 62 C38.02329276 58.40202679 35.22391095 54.16793595 32.25 49.75 C31.74339844 49.00492188 31.23679688 48.25984375 30.71484375 47.4921875 C29.47265244 45.66405689 28.23452418 43.833313 27 42 C28.28921216 44.60540782 29.58125596 47.20934373 30.875 49.8125 C31.23980469 50.55048828 31.60460937 51.28847656 31.98046875 52.04882812 C32.33496094 52.76103516 32.68945312 53.47324219 33.0546875 54.20703125 C33.54171143 55.18893433 33.54171143 55.18893433 34.03857422 56.19067383 C35.09255672 58.24652798 35.09255672 58.24652798 37 61 C37 61.99 37 62.98 37 64 C27.75251386 63.95988075 20.76231155 61.02528714 13.703125 55.05859375 C1.23364298 42.33128409 -0.1503309 22.11127836 -0.1875 5.125 C-0.14160989 3.41613982 -0.08697374 1.70726231 0 0 Z " fill="#1C2E64" transform="translate(116,84)"/>
<path d="M0 0 C0.54881675 17.37919719 0.33493801 38.40081455 -11.375 52.5 C-17.91711955 59.18281029 -25.15788466 63.81894124 -34.8046875 64.07421875 C-35.89136719 64.03748047 -35.89136719 64.03748047 -37 64 C-35.27502493 59.3970402 -33.0904129 55.06744176 -30.875 50.6875 C-30.50246094 49.94693359 -30.12992188 49.20636719 -29.74609375 48.44335938 C-28.83255194 46.62798783 -27.91652513 44.81386718 -27 43 C-27.38333496 43.54003662 -27.76666992 44.08007324 -28.16162109 44.63647461 C-29.89504246 47.07329432 -31.63492239 49.5054295 -33.375 51.9375 C-33.97828125 52.78763672 -34.5815625 53.63777344 -35.203125 54.51367188 C-35.78320312 55.32255859 -36.36328125 56.13144531 -36.9609375 56.96484375 C-37.49509277 57.7137085 -38.02924805 58.46257324 -38.57958984 59.23413086 C-40 61 -40 61 -42 62 C-45.00616945 50.72686455 -45.27750721 40.63721858 -40 30 C-33.85077994 19.55193308 -23.87800309 12.92655687 -13.5625 7.0625 C-12.07459961 6.19915039 -12.07459961 6.19915039 -10.55664062 5.31835938 C-1.36696665 0 -1.36696665 0 0 0 Z " fill="#1C2D64" transform="translate(267,84)"/>
<path d="M0 0 C5.55571254 5.02608236 9.20749882 11.07665605 12 18 C12 18.66 12 19.32 12 20 C3.99160644 18.48116674 -3.36751795 15.81586717 -11 13 C-3.74 16.63 3.52 20.26 11 24 C2.16303859 30.62772106 -7.26846316 31.3414421 -18 30 C-21.8660675 28.93580323 -24.75165498 27.32651738 -28 25 C-28.86625 24.3915625 -29.7325 23.783125 -30.625 23.15625 C-40.67574034 15.50398179 -48.97116629 5.45379268 -56 -5 C-56 -5.66 -56 -6.32 -56 -7 C-16.04493475 -11.91214853 -16.04493475 -11.91214853 0 0 Z " fill="#FBB144" transform="translate(118,144)"/>
<path d="M0 0 C-8.33532751 14.68342463 -20.99625428 29.6665021 -36.84765625 36.16796875 C-40.51360846 37.13556208 -43.98291203 37.38221664 -47.75 37.375 C-48.44867188 37.37628906 -49.14734375 37.37757813 -49.8671875 37.37890625 C-55.83003673 37.25788901 -60.72651296 35.83956994 -66 33 C-66 32.01 -66 31.02 -66 30 C-59.07 26.7 -52.14 23.4 -45 20 C-51.77944201 22.33886424 -51.77944201 22.33886424 -58.55200195 24.69750977 C-59.39722412 24.98424561 -60.24244629 25.27098145 -61.11328125 25.56640625 C-61.97735596 25.86490479 -62.84143066 26.16340332 -63.73168945 26.47094727 C-66 27 -66 27 -69 26 C-63.00487906 13.26809367 -57.25482294 5.38017622 -44.0625 -0.375 C-30.35228437 -4.94507188 -14.00588617 -1.63743137 0 0 Z " fill="#FBB144" transform="translate(322,137)"/>
<path d="M0 0 C5.15782416 2.47281572 10.17861702 5.14364416 15.12451172 8.01855469 C6.85448152 17.29866491 -9.72986464 25.33982722 -21.88720703 26.49121094 C-33.86831466 27.15090173 -41.62447478 23.45967541 -50.47705078 15.56933594 C-51.87548828 14.01855469 -51.87548828 14.01855469 -51.87548828 12.01855469 C-44.18617543 10.95795981 -36.63042342 10.91927387 -28.87548828 11.01855469 C-28.87548828 10.35855469 -28.87548828 9.69855469 -28.87548828 9.01855469 C-36.46548828 9.01855469 -44.05548828 9.01855469 -51.87548828 9.01855469 C-49.77615678 4.81989169 -48.41088242 3.62113339 -44.68798828 0.95605469 C-43.76630859 0.28445312 -42.84462891 -0.38714844 -41.89501953 -1.07910156 C-27.79860513 -9.960025 -14.13953997 -6.50551604 0 0 Z " fill="#04714A" transform="translate(315.87548828125,203.9814453125)"/>
<path d="M0 0 C4.82672736 2.93362984 8.95888159 6.5847731 12.80859375 10.70703125 C12.80859375 11.03703125 12.80859375 11.36703125 12.80859375 11.70703125 C4.88859375 11.70703125 -3.03140625 11.70703125 -11.19140625 11.70703125 C-11.19140625 12.36703125 -11.19140625 13.02703125 -11.19140625 13.70703125 C-3.27140625 14.03703125 4.64859375 14.36703125 12.80859375 14.70703125 C6.02159014 22.62520213 6.02159014 22.62520213 2.80859375 24.51953125 C2.18984375 24.89722656 1.57109375 25.27492187 0.93359375 25.6640625 C-7.63778332 29.87097 -17.31523822 30.42955904 -26.38671875 27.4921875 C-36.76934006 23.63400734 -46.02247141 17.84022185 -55.19140625 11.70703125 C-52.39588846 9.49026987 -49.63702084 7.82865838 -46.41796875 6.296875 C-45.51046875 5.86439453 -44.60296875 5.43191406 -43.66796875 4.98632812 C-42.72695312 4.54353516 -41.7859375 4.10074219 -40.81640625 3.64453125 C-39.883125 3.19787109 -38.94984375 2.75121094 -37.98828125 2.29101562 C-25.32414019 -3.70920418 -13.27609851 -6.25075466 0 0 Z " fill="#047149" transform="translate(107.19140625,201.29296875)"/>
<path d="M0 0 C1.27875 0.00257813 2.5575 0.00515625 3.875 0.0078125 C5.15375 0.00523437 6.4325 0.00265625 7.75 0 C10.875 0.1328125 10.875 0.1328125 11.875 1.1328125 C11.97467586 3.39730629 12.00299831 5.66495461 12.00439453 7.93164062 C12.00614685 8.64219101 12.00789917 9.35274139 12.00970459 10.08482361 C12.01412277 12.44459441 12.01118525 14.80429087 12.0078125 17.1640625 C12.00848555 18.79691584 12.00945558 20.42976908 12.01071167 22.06262207 C12.0121886 25.48918611 12.01003426 28.91572413 12.00537109 32.34228516 C11.9996738 36.74435751 12.00295284 41.14636891 12.00894356 45.54843903 C12.01254931 48.92149315 12.01141052 52.29453272 12.00881577 55.66758728 C12.00814654 57.29117337 12.00897478 58.91476077 12.01129532 60.53834534 C12.01382209 62.8035942 12.00998094 65.068743 12.00439453 67.33398438 C12.00359894 68.62558472 12.00280334 69.91718506 12.00198364 71.2479248 C11.875 74.1328125 11.875 74.1328125 10.875 75.1328125 C8.52186445 75.20552991 6.16666332 75.21652118 3.8125 75.1953125 C1.87697266 75.18177734 1.87697266 75.18177734 -0.09765625 75.16796875 C-1.09667969 75.15636719 -2.09570312 75.14476562 -3.125 75.1328125 C-4.59358473 72.19564304 -4.25234295 69.59134006 -4.25439453 66.31225586 C-4.25702301 65.2608416 -4.25702301 65.2608416 -4.25970459 64.18818665 C-4.26411366 61.86631816 -4.26118875 59.54452554 -4.2578125 57.22265625 C-4.25848573 55.6136524 -4.25945592 54.00464864 -4.26071167 52.39564514 C-4.2621873 49.02213575 -4.26003812 45.64865281 -4.25537109 42.27514648 C-4.24966931 37.94148374 -4.2529565 33.60788286 -4.25894356 29.27422237 C-4.26254891 25.95178253 -4.26141079 22.62935747 -4.25881577 19.30691719 C-4.25814666 17.70845088 -4.25897435 16.10998324 -4.26129532 14.51151848 C-4.26382191 12.28230075 -4.2599814 10.05318472 -4.25439453 7.82397461 C-4.25359894 6.55315536 -4.25280334 5.28233612 -4.25198364 3.9730072 C-4.07413899 -0.00477626 -4.02211862 0.17094004 0 0 Z " fill="#FEFDFB" transform="translate(1511.125,164.8671875)"/>
<path d="M0 0 C1.76150391 -0.02126953 1.76150391 -0.02126953 3.55859375 -0.04296875 C6.5625 0.1875 6.5625 0.1875 8.5625 2.1875 C8.81646729 5.10998535 8.81646729 5.10998535 8.82128906 8.90039062 C8.8247937 9.5899736 8.82829834 10.27955658 8.83190918 10.99003601 C8.84072829 13.27470905 8.83487687 15.55907368 8.828125 17.84375 C8.8294716 19.42793843 8.83141209 21.01212646 8.83392334 22.59631348 C8.83687484 25.91857838 8.83257618 29.24073585 8.82324219 32.56298828 C8.81184758 36.82711591 8.81840692 41.09099179 8.83038712 45.35511017 C8.83760505 48.62699286 8.83531811 51.8988156 8.83013153 55.17070007 C8.82879485 56.74322031 8.83044341 58.31574595 8.83509064 59.88825989 C8.84015485 62.08385693 8.8324475 64.27904304 8.82128906 66.47460938 C8.81890228 68.35085999 8.81890228 68.35085999 8.81646729 70.26501465 C8.5625 73.1875 8.5625 73.1875 6.5625 75.1875 C3.55859375 75.41796875 3.55859375 75.41796875 0 75.375 C-1.17691406 75.36855469 -2.35382813 75.36210937 -3.56640625 75.35546875 C-6.4375 75.1875 -6.4375 75.1875 -7.4375 74.1875 C-7.53717586 71.92300621 -7.56549831 69.65535789 -7.56689453 67.38867188 C-7.56864685 66.67812149 -7.57039917 65.96757111 -7.57220459 65.23548889 C-7.57662277 62.87571809 -7.57368525 60.51602163 -7.5703125 58.15625 C-7.57098555 56.52339666 -7.57195558 54.89054342 -7.57321167 53.25769043 C-7.5746886 49.83112639 -7.57253426 46.40458837 -7.56787109 42.97802734 C-7.5621738 38.57595499 -7.56545284 34.17394359 -7.57144356 29.77187347 C-7.57504931 26.39881935 -7.57391052 23.02577978 -7.57131577 19.65272522 C-7.57064654 18.02913913 -7.57147478 16.40555173 -7.57379532 14.78196716 C-7.57632209 12.5167183 -7.57248094 10.2515695 -7.56689453 7.98632812 C-7.56609894 6.69472778 -7.56530334 5.40312744 -7.56448364 4.0723877 C-7.33339666 -1.1775798 -4.65727341 0.02550533 0 0 Z " fill="#FEFDFB" transform="translate(1040.4375,164.8125)"/>
<path d="M0 0 C4.62 0 9.24 0 14 0 C16 2 16 2 16.24723816 4.85328674 C16.24581314 6.0716069 16.24438812 7.28992706 16.24291992 8.54516602 C16.24481827 9.21684814 16.24671661 9.88853027 16.24867249 10.58056641 C16.25238324 12.805131 16.24167302 15.02937058 16.23046875 17.25390625 C16.22927712 18.79564882 16.22882375 20.33739212 16.2290802 21.87913513 C16.22751488 25.11144551 16.21922083 28.3436452 16.20581055 31.57592773 C16.18880639 35.7279969 16.18499658 39.8799445 16.18575573 44.03204441 C16.18548439 47.21552195 16.18000924 50.39897268 16.17275429 53.58244133 C16.16956288 55.11391942 16.16759912 56.64540055 16.16686058 58.17688179 C16.16470278 60.31271717 16.15597128 62.44842116 16.14526367 64.58422852 C16.13954597 66.41051537 16.13954597 66.41051537 16.13371277 68.2736969 C16 71 16 71 15 72 C10.05 72 5.1 72 0 72 C0 48.24 0 24.48 0 0 Z " fill="#FEFDFC" transform="translate(1256,166)"/>
<path d="M0 0 C6.5933813 32.06424121 6.5933813 32.06424121 -1.5625 45.6875 C-6.3606601 52.39788528 -12.29880344 55.43293448 -20 58 C-18.35 52.06 -16.7 46.12 -15 40 C-17.31 45.28 -19.62 50.56 -22 56 C-22.66 56 -23.32 56 -24 56 C-28.29828167 46.0794124 -29.84103378 37.3050747 -25.9140625 26.9921875 C-22.318895 19.15656604 -16.46336028 13.23532375 -9.99609375 7.74609375 C-8.10697829 6.09357983 -6.36453343 4.37008364 -4.625 2.5625 C-2 0 -2 0 0 0 Z " fill="#FBB245" transform="translate(243,20)"/>
<path d="M0 0 C8.76083051 1.84324404 17.3422053 3.88959053 25.75 7 C26.40419922 7.2367041 27.05839844 7.4734082 27.73242188 7.71728516 C36.40097825 11.04353923 41.32308114 17.01688658 45.046875 25.33984375 C46.75017896 30.03999854 47.31796737 34.0185112 47 39 C43.24269753 37.3718356 40.383177 34.98598083 37.25 32.375 C36.26515625 31.55773437 35.2803125 30.74046875 34.265625 29.8984375 C33.14414063 28.95871094 33.14414063 28.95871094 32 28 C35.18112575 32.10537175 38.64091983 35.65182677 42.390625 39.23046875 C44 41 44 41 44 43 C33.9517504 43.80267083 26.32770479 42.99445814 18 37 C8.87006663 28.34789492 3.81208407 14.72300188 0 3 C0 2.01 0 1.02 0 0 Z " fill="#06724B" transform="translate(62,78)"/>
<path d="M0 0 C-4.14062293 15.21594766 -9.69359123 31.50914249 -23.796875 40.09375 C-30.12630272 43.01502433 -37.19308814 42.25812728 -44 42 C-43.67 41.01 -43.34 40.02 -43 39 C-42.34 39 -41.68 39 -41 39 C-41 38.34 -41 37.68 -41 37 C-39.28515625 35.34375 -39.28515625 35.34375 -37.0625 33.5 C-34.07954821 31.11073001 -34.07954821 31.11073001 -32 28 C-33.37285156 29.0828125 -33.37285156 29.0828125 -34.7734375 30.1875 C-35.97376095 31.1252527 -37.1742926 32.06273895 -38.375 33 C-38.97828125 33.47695312 -39.5815625 33.95390625 -40.203125 34.4453125 C-44.7734375 38 -44.7734375 38 -47 38 C-45.73319028 25.7667778 -43.0593009 17.69675198 -33.43359375 9.71484375 C-24.63330073 3.51367419 -10.68619164 -0.45891621 0 0 Z " fill="#05724B" transform="translate(321,79)"/>
<path d="M0 0 C1.64937473 1.40884091 3.29772735 2.81889297 4.94140625 4.234375 C6.2752343 5.37837932 7.61600501 6.51435806 8.96484375 7.640625 C17.66620804 15.01524662 26.1240789 22.70612204 27.375 34.55078125 C27.63185331 42.53731379 26.7384078 48.90703878 23 56 C19.7892581 53.32920269 18.49022748 50.07806613 16.8125 46.3125 C16.01779297 44.54326172 16.01779297 44.54326172 15.20703125 42.73828125 C14.80871094 41.83464844 14.41039062 40.93101563 14 40 C14.3609375 41.13179687 14.721875 42.26359375 15.09375 43.4296875 C15.56264982 44.91141093 16.03139164 46.39318437 16.5 47.875 C16.73847656 48.62136719 16.97695312 49.36773437 17.22265625 50.13671875 C19 55.7734375 19 55.7734375 19 58 C10.72180126 55.63480036 4.91347603 50.98356036 0 44 C-3.07510154 38.26361568 -3.47427697 33.51254809 -3.375 27.0625 C-3.36919922 26.14895752 -3.36339844 25.23541504 -3.35742188 24.29418945 C-3.20084472 15.97457835 -1.91948021 8.07781254 0 0 Z " fill="#FBB143" transform="translate(141,20)"/>
<path d="M0 0 C4.42530323 2.5904214 7.62307695 5.31802139 9.70703125 10.09375 C10.44735693 15.70017469 10.4832623 20.42186774 8.08203125 25.59375 C3.6265306 30.28375069 -0.54821083 32.91076614 -7.04296875 33.34375 C-11.94193813 33.25386065 -16.18595076 32.1354341 -19.8046875 28.62890625 C-24.32487033 23.33161462 -24.6393491 19.88424683 -24.57421875 13.078125 C-24.07451151 7.77567591 -21.54219825 5.22110345 -17.73046875 1.78125 C-12.57622186 -1.78707477 -5.83410467 -2.30581309 0 0 Z " fill="#F8F8FA" transform="translate(714.29296875,279.90625)"/>
<path d="M0 0 C2.97 -0.103125 5.94 -0.20625 9 -0.3125 C9.91910156 -0.35802002 10.83820313 -0.40354004 11.78515625 -0.45043945 C18.04309416 -0.55442534 22.19692705 0.94593567 27 5 C30.62425854 9.87009742 30.82673502 15.13854162 30 21 C28.2024441 26.35204498 24.94877842 29.42619337 20 32 C16.51988294 32.46857419 13.12805599 32.37891885 9.625 32.25 C4.860625 32.12625 4.860625 32.12625 0 32 C0 21.44 0 10.88 0 0 Z " fill="#F8F9FA" transform="translate(448,280)"/>
<path d="M0 0 C3.9790243 -0.08802152 7.95779388 -0.14073233 11.9375 -0.1875 C13.05447266 -0.21263672 14.17144531 -0.23777344 15.32226562 -0.26367188 C26.0458688 -0.35801442 33.17339215 1.34414955 41.046875 8.8046875 C44.48561078 12.66982651 47 16.69080674 47 22 C46.39671875 21.79503906 45.7934375 21.59007812 45.171875 21.37890625 C44.37265625 21.10949219 43.5734375 20.84007812 42.75 20.5625 C41.96109375 20.29566406 41.1721875 20.02882812 40.359375 19.75390625 C38.2647745 19.0846051 36.13328033 18.53332008 34 18 C37.63 19.98 41.26 21.96 45 24 C45 24.66 45 25.32 45 26 C38.43686058 29.08999031 30.63132885 29.13498026 23.625 27.41796875 C13.10262971 22.77200283 5.78826404 11.53763602 0 2 C0 1.34 0 0.68 0 0 Z " fill="#1D2E65" transform="translate(20,156)"/>
<path d="M0 0 C1.79824219 0.00966797 1.79824219 0.00966797 3.6328125 0.01953125 C5.4890625 0.04466797 5.4890625 0.04466797 7.3828125 0.0703125 C8.64351563 0.07933594 9.90421875 0.08835938 11.203125 0.09765625 C14.3048829 0.12115442 17.40624902 0.15400916 20.5078125 0.1953125 C14.96404154 10.22572737 6.3079123 24.17502312 -5.3046875 27.75390625 C-12.1403224 29.13323972 -18.97057531 28.51410795 -25.4921875 26.1953125 C-25.4921875 25.5353125 -25.4921875 24.8753125 -25.4921875 24.1953125 C-23.53994542 22.91124851 -21.52877988 21.71589572 -19.4921875 20.5703125 C-18.3784375 19.93867188 -17.2646875 19.30703125 -16.1171875 18.65625 C-14.8178125 17.93308594 -14.8178125 17.93308594 -13.4921875 17.1953125 C-14.33523438 17.55625 -15.17828125 17.9171875 -16.046875 18.2890625 C-17.14257812 18.753125 -18.23828125 19.2171875 -19.3671875 19.6953125 C-20.45773437 20.159375 -21.54828125 20.6234375 -22.671875 21.1015625 C-25.4921875 22.1953125 -25.4921875 22.1953125 -27.4921875 22.1953125 C-25.76111681 13.88617321 -21.31622052 8.05235525 -14.3984375 3.203125 C-9.65175629 0.69360911 -5.32826054 -0.05074534 0 0 Z " fill="#1D2E65" transform="translate(343.4921875,155.8046875)"/>
<path d="M0 0 C5.85861872 0.08707339 9.72879731 0.85148469 14.58959961 4.32348633 C17.06361611 8.03451108 17.13464013 11.02185883 16.58959961 15.32348633 C15.33959961 18.26098633 15.33959961 18.26098633 13.58959961 20.32348633 C11.48022461 20.95239258 11.48022461 20.95239258 9.58959961 21.32348633 C10.34756836 22.37149414 10.34756836 22.37149414 11.12084961 23.44067383 C12.09538086 24.80579102 12.09538086 24.80579102 13.08959961 26.19848633 C13.73928711 27.1034082 14.38897461 28.00833008 15.05834961 28.94067383 C16.58959961 31.32348633 16.58959961 31.32348633 16.58959961 33.32348633 C11.47294262 34.11745034 11.47294262 34.11745034 8.58959961 33.32348633 C6.75587859 31.14378021 5.45268303 28.86509958 4.04272461 26.39379883 C2.65291679 23.96739009 2.65291679 23.96739009 -0.78540039 23.26098633 C-2.08477539 23.29192383 -2.08477539 23.29192383 -3.41040039 23.32348633 C-3.41040039 26.95348633 -3.41040039 30.58348633 -3.41040039 34.32348633 C-6.05040039 34.32348633 -8.69040039 34.32348633 -11.41040039 34.32348633 C-11.43505327 29.64209379 -11.45323778 24.96073874 -11.46533203 20.27929688 C-11.47037196 18.68554018 -11.47720389 17.09178814 -11.48583984 15.49804688 C-11.49792038 13.2119838 -11.50363194 10.92598166 -11.50805664 8.63989258 C-11.51321793 7.92321915 -11.51837921 7.20654572 -11.5236969 6.46815491 C-11.52389302 4.7528496 -11.47232046 3.03767366 -11.41040039 1.32348633 C-9.11577906 -0.971135 -3.20276556 0.01498643 0 0 Z " fill="#EFF1F4" transform="translate(1553.410400390625,278.676513671875)"/>
<path d="M0 0 C19.4 0 19.4 0 25 4 C27.668947 8.0034205 27.83267518 11.29249972 27 16 C24.625 19.0625 24.625 19.0625 22 21 C21.34 21 20.68 21 20 21 C20.75796875 22.04800781 20.75796875 22.04800781 21.53125 23.1171875 C22.50578125 24.48230469 22.50578125 24.48230469 23.5 25.875 C24.1496875 26.77992188 24.799375 27.68484375 25.46875 28.6171875 C27 31 27 31 27 33 C21.88334301 33.79396402 21.88334301 33.79396402 19 33 C17.16627898 30.82029389 15.86308342 28.54161325 14.453125 26.0703125 C13.06331718 23.64390376 13.06331718 23.64390376 9.625 22.9375 C8.325625 22.9684375 8.325625 22.9684375 7 23 C7 26.63 7 30.26 7 34 C4.69 34 2.38 34 0 34 C0 22.78 0 11.56 0 0 Z " fill="#F5F5F8" transform="translate(1266,279)"/>
<path d="M0 0 C3.4203866 1.17013226 3.91540482 1.87310723 6 5 C6.44251636 8.35048103 6.72398285 10.84465455 4.87890625 13.7890625 C3.65445111 15.25285873 2.3326811 16.63400187 1 18 C1.99 18.66 2.98 19.32 4 20 C4.66 18.68 5.32 17.36 6 16 C7.98 16.66 9.96 17.32 12 18 C10.80100302 21.0831351 9.52299523 24.06279492 8 27 C9.32 27.66 10.64 28.32 12 29 C11.25 30.9375 11.25 30.9375 10 33 C7.875 33.75 7.875 33.75 6 34 C5.67 33.34 5.34 32.68 5 32 C1.39007621 32.65585189 1.39007621 32.65585189 -2 34 C-6.49977464 34.25470423 -10.015566 34.21357444 -14 32 C-16.70663573 29.57336107 -17.24135383 27.51755473 -17.4375 24 C-17.32648595 20.86823531 -17.0897875 20.11971666 -15.125 17.5 C-13 16 -13 16 -11 16 C-11.33 15.484375 -11.66 14.96875 -12 14.4375 C-13.39434583 11.03878205 -13.44751559 8.64405552 -13 5 C-9.24952009 -0.50851736 -6.20128425 -0.68903158 0 0 Z " fill="#F5F6F8" transform="translate(1124,279)"/>
<path d="M0 0 C7 0 7 0 8.7409668 1.18994141 C9.33905151 2.01244385 9.33905151 2.01244385 9.94921875 2.8515625 C10.40490234 3.45613281 10.86058594 4.06070312 11.33007812 4.68359375 C11.77802734 5.32425781 12.22597656 5.96492188 12.6875 6.625 C13.14705078 7.24246094 13.60660156 7.85992187 14.08007812 8.49609375 C16.85113044 12.25144282 19.40830251 16.11245376 22 20 C22.33 13.4 22.66 6.8 23 0 C25.31 0 27.62 0 30 0 C30 11.22 30 22.44 30 34 C23 34 23 34 20.77734375 31.875 C20.17019531 30.92625 19.56304688 29.9775 18.9375 29 C17.94556641 27.50533203 17.94556641 27.50533203 16.93359375 25.98046875 C16.29550781 24.99691406 15.65742187 24.01335937 15 23 C13.8476869 21.42688466 12.68287681 19.86276443 11.5 18.3125 C10.675 17.219375 9.85 16.12625 9 15 C8.67 21.27 8.34 27.54 8 34 C5.36 34 2.72 34 0 34 C0 22.78 0 11.56 0 0 Z " fill="#EBECF1" transform="translate(740,279)"/>
<path d="M0 0 C3.71336442 2.9868366 5.63669469 5.26483002 6.2734375 10.05859375 C6.61998753 18.17586166 4.45888845 25.68845533 -0.6796875 32.09375 C-3.48011443 34.73237448 -5.37871218 35.87817886 -9.1875 36.625 C-12.66491715 35.85224063 -13.82986018 34.79017977 -16 32 C-19.14594238 26.62473874 -18.77459334 20.9865764 -17.2421875 15.078125 C-14.19799718 6.20922406 -10.5587211 -1.27432841 0 0 Z " fill="#1F3066" transform="translate(250,203)"/>
<path d="M0 0 C4.40406361 0.84990701 6.88328939 2.16919596 9.5625 5.6875 C13.74383807 13.05985922 15.83395612 20.22479741 14.5625 28.6875 C13.02946367 32.8485986 12.25346643 34.22685571 8.5625 36.6875 C4.51489857 37.31712689 2.9210443 36.91696835 -0.5625 34.6875 C-5.68067561 29.97233034 -8.09536426 23.47054376 -8.7109375 16.6640625 C-9.01923536 6.49023326 -9.01923536 6.49023326 -6.375 2.875 C-3.4375 0.6875 -3.4375 0.6875 0 0 Z " fill="#1C2E65" transform="translate(138.4375,202.3125)"/>
<path d="M0 0 C4.81939514 1.24639529 7.08915506 3.53707101 9.7421875 7.68359375 C12.15314213 13.83899562 11.48760997 22.4257019 9.375 28.625 C6.75520489 33.58389788 6.75520489 33.58389788 3.625 34.9375 C-3.23081034 35.80807909 -3.23081034 35.80807909 -7.25 32.75 C-12.4492926 25.86858332 -12.25128597 18.2096396 -11.375 9.9375 C-9.31122425 4.47643187 -6.29652561 -0.11660233 0 0 Z " fill="#1C2E64" transform="translate(193.375,156.0625)"/>
<path d="M0 0 C1.92578125 1.09375 1.92578125 1.09375 4.73828125 3.09375 C2.75828125 6.06375 2.75828125 6.06375 0.73828125 9.09375 C0.07828125 8.76375 -0.58171875 8.43375 -1.26171875 8.09375 C-5.29157507 6.75046456 -8.0059293 6.68843672 -12.26171875 7.09375 C-14.96730737 8.29870919 -14.96730737 8.29870919 -16.26171875 11.09375 C-16.98553205 15.63266258 -17.02464531 19.56789688 -14.94921875 23.71875 C-10.58409154 25.9520709 -6.06797903 25.3920696 -1.26171875 25.09375 C-1.26171875 23.44375 -1.26171875 21.79375 -1.26171875 20.09375 C-3.57171875 20.09375 -5.88171875 20.09375 -8.26171875 20.09375 C-8.26171875 17.78375 -8.26171875 15.47375 -8.26171875 13.09375 C-3.64171875 13.09375 0.97828125 13.09375 5.73828125 13.09375 C6.93664414 26.3256736 6.93664414 26.3256736 4.30859375 30.203125 C-0.74431802 33.65290412 -6.33939878 33.96467941 -12.26171875 33.09375 C-18.15135599 31.35582426 -20.81501665 28.95968238 -24.26171875 24.09375 C-25.93459345 19.07512589 -26.29519224 13.81414882 -24.390625 8.80078125 C-19.25241178 -0.17845693 -9.98932676 -4.00263179 0 0 Z " fill="#F3F4F7" transform="translate(1243.26171875,279.90625)"/>
<path d="M0 0 C1.76150391 -0.02126953 1.76150391 -0.02126953 3.55859375 -0.04296875 C6.5625 0.1875 6.5625 0.1875 8.5625 2.1875 C8.73767747 4.91235728 8.79399133 7.53409362 8.7578125 10.2578125 C8.7549826 11.05404022 8.75215271 11.85026794 8.74923706 12.67062378 C8.7380264 15.21806763 8.71292062 17.76516211 8.6875 20.3125 C8.67747133 22.03775535 8.66834528 23.76301619 8.66015625 25.48828125 C8.63978418 29.72159762 8.60063823 33.95415695 8.5625 38.1875 C3.2825 38.1875 -1.9975 38.1875 -7.4375 38.1875 C-7.46214928 32.93644558 -7.48033568 27.68542455 -7.49243164 22.43432617 C-7.49747218 20.64655979 -7.50430454 18.85879755 -7.51293945 17.07104492 C-7.5250173 14.50698832 -7.53073094 11.94298603 -7.53515625 9.37890625 C-7.54031754 8.5747377 -7.54547882 7.77056915 -7.55079651 6.94203186 C-7.55099215 5.02348285 -7.49951983 3.10504632 -7.4375 1.1875 C-5.56506019 -0.68493981 -2.50090482 0.01369608 0 0 Z " fill="#FEFBF7" transform="translate(1340.4375,164.8125)"/>
<path d="M0 0 C1.17433594 0.01417969 2.34867188 0.02835938 3.55859375 0.04296875 C5.32396484 0.05263672 5.32396484 0.05263672 7.125 0.0625 C9.99609375 0.23046875 9.99609375 0.23046875 10.99609375 1.23046875 C11.08468021 3.9694096 11.11132854 6.68300145 11.09375 9.421875 C11.09233505 10.24171371 11.0909201 11.06155243 11.08946228 11.90623474 C11.08384664 14.53518257 11.07129154 17.16404648 11.05859375 19.79296875 C11.05358076 21.57096232 11.04901751 23.34895721 11.04492188 25.12695312 C11.03387214 29.4948242 11.01659706 33.86263223 10.99609375 38.23046875 C5.71609375 38.23046875 0.43609375 38.23046875 -5.00390625 38.23046875 C-5.04976712 33.1399127 -5.08960683 28.05007055 -5.11376953 22.95947266 C-5.12384001 21.2270261 -5.13749714 19.49459659 -5.15478516 17.76220703 C-5.17898787 15.27502236 -5.19037864 12.788062 -5.19921875 10.30078125 C-5.20954132 9.52364777 -5.21986389 8.74651428 -5.23049927 7.9458313 C-5.23089896 6.03921382 -5.12622765 4.13315839 -5.00390625 2.23046875 C-3.00390625 0.23046875 -3.00390625 0.23046875 0 0 Z " fill="#FEFBF6" transform="translate(799.00390625,164.76953125)"/>
<path d="M0 0 C8.25 0 16.5 0 25 0 C25 2.31 25 4.62 25 7 C19.06 7 13.12 7 7 7 C7 9.31 7 11.62 7 14 C12.28 14 17.56 14 23 14 C23 15.98 23 17.96 23 20 C17.72 20 12.44 20 7 20 C7 22.31 7 24.62 7 27 C12.94 27 18.88 27 25 27 C25 29.31 25 31.62 25 34 C16.75 34 8.5 34 0 34 C0 22.78 0 11.56 0 0 Z " fill="#F1F2F5" transform="translate(1586,279)"/>
<path d="M0 0 C2.31 0 4.62 0 7 0 C8.79305054 4.06189059 10.58419788 8.12461769 12.375 12.1875 C12.88289063 13.33798828 13.39078125 14.48847656 13.9140625 15.67382812 C14.40390625 16.78564453 14.89375 17.89746094 15.3984375 19.04296875 C16.07398682 20.57473755 16.07398682 20.57473755 16.76318359 22.13745117 C17.17133301 23.08209229 17.57948242 24.0267334 18 25 C18.38365723 25.88598877 18.76731445 26.77197754 19.16259766 27.68481445 C20 30 20 30 20 33 C17.69 33 15.38 33 13 33 C12.65324219 32.02804687 12.30648438 31.05609375 11.94921875 30.0546875 C10.27792473 26.65603127 10.27792473 26.65603127 6.64453125 26.1953125 C5.37996094 26.17210937 4.11539062 26.14890625 2.8125 26.125 C1.54019531 26.08632813 0.26789063 26.04765625 -1.04296875 26.0078125 C-2.01878906 26.00523437 -2.99460937 26.00265625 -4 26 C-4.309375 27.134375 -4.61875 28.26875 -4.9375 29.4375 C-6 33 -6 33 -7 34 C-9.33297433 34.04092937 -11.66705225 34.04241723 -14 34 C-11.63517299 26.38896973 -8.5641079 19.20851483 -5.3125 11.9375 C-4.80138672 10.78572266 -4.29027344 9.63394531 -3.76367188 8.44726562 C-2.51278694 5.62985188 -1.25815677 2.81417202 0 0 Z " fill="#F5F6F8" transform="translate(1186,279)"/>
<path d="M0 0 C2.31 0 4.62 0 7 0 C8.85840466 4.21448765 10.70960811 8.43203601 12.55419922 12.65258789 C13.18276014 14.08802374 13.81328278 15.52260224 14.44580078 16.95629883 C15.35445572 19.0168201 16.25601894 21.08031826 17.15625 23.14453125 C17.44060913 23.78526077 17.72496826 24.4259903 18.01794434 25.08613586 C19.24319796 27.9125775 20 29.88192037 20 33 C17.69 33 15.38 33 13 33 C12.65324219 32.02804687 12.30648437 31.05609375 11.94921875 30.0546875 C10.27792473 26.65603127 10.27792473 26.65603127 6.64453125 26.1953125 C5.37996094 26.17210937 4.11539063 26.14890625 2.8125 26.125 C1.54019531 26.08632813 0.26789062 26.04765625 -1.04296875 26.0078125 C-2.01878906 26.00523437 -2.99460937 26.00265625 -4 26 C-4.309375 27.134375 -4.61875 28.26875 -4.9375 29.4375 C-6 33 -6 33 -7 34 C-9.33297433 34.04092937 -11.66705225 34.04241723 -14 34 C-11.73730456 26.79983337 -8.92334466 19.96300354 -5.875 13.0625 C-5.41996094 12.02287109 -4.96492187 10.98324219 -4.49609375 9.91210938 C-1.21552579 2.43105159 -1.21552579 2.43105159 0 0 Z " fill="#F6F7F9" transform="translate(931,279)"/>
<path d="M0 0 C2.31 0 4.62 0 7 0 C10.97593764 7.62558253 14.65795153 15.29898685 17.9375 23.25 C18.24373291 23.98855225 18.54996582 24.72710449 18.86547852 25.48803711 C21 30.74059199 21 30.74059199 21 33 C18.69 33 16.38 33 14 33 C13.01 31.02 12.02 29.04 11 27 C6.38 27 1.76 27 -3 27 C-3.99 28.98 -4.98 30.96 -6 33 C-8.31 33 -10.62 33 -13 33 C-10.66737643 25.63014946 -7.8202139 18.55561321 -4.8125 11.4375 C-4.11737305 9.78137695 -4.11737305 9.78137695 -3.40820312 8.09179688 C-2.27506147 5.39328426 -1.1389372 2.69607042 0 0 Z " fill="#F6F7F9" transform="translate(594,279)"/>
<path d="M0 0 C8.25 0 16.5 0 25 0 C25 2.31 25 4.62 25 7 C19.06 7 13.12 7 7 7 C7 9.31 7 11.62 7 14 C12.28 14 17.56 14 23 14 C23 15.98 23 17.96 23 20 C17.72 20 12.44 20 7 20 C7 22.31 7 24.62 7 27 C12.94 27 18.88 27 25 27 C25 28.98 25 30.96 25 33 C16.75 33 8.5 33 0 33 C0 22.11 0 11.22 0 0 Z " fill="#F6F6F8" transform="translate(407,279)"/>
<path d="M0 0 C2.31 0 4.62 0 7 0 C7 4.62 7 9.24 7 14 C11.62 14 16.24 14 21 14 C21 9.71 21 5.42 21 1 C23.31 1 25.62 1 28 1 C28 11.56 28 22.12 28 33 C25.69 33 23.38 33 21 33 C21 28.71 21 24.42 21 20 C16.38 20 11.76 20 7 20 C7 24.62 7 29.24 7 34 C4.69 34 2.38 34 0 34 C0 22.78 0 11.56 0 0 Z " fill="#F8F9FA" transform="translate(1040,279)"/>
<path d="M0 0 C2.31 0 4.62 0 7 0 C7.01981934 0.64549805 7.03963867 1.29099609 7.06005859 1.95605469 C7.15546328 4.88777221 7.26507971 7.81879232 7.375 10.75 C7.4059375 11.76578125 7.436875 12.7815625 7.46875 13.828125 C7.50742188 14.8078125 7.54609375 15.7875 7.5859375 16.796875 C7.6173584 17.69760742 7.6487793 18.59833984 7.68115234 19.52636719 C8.01137256 22.08822875 8.70951673 23.78127437 10 26 C14.0100934 26.17864631 14.0100934 26.17864631 18 26 C20.60088622 23.39911378 20.29962225 22.17862887 20.4140625 18.5546875 C20.45273438 17.47832031 20.49140625 16.40195312 20.53125 15.29296875 C20.57765625 13.60107422 20.57765625 13.60107422 20.625 11.875 C20.66367188 10.73933594 20.70234375 9.60367187 20.7421875 8.43359375 C20.83667601 5.62256044 20.92223541 2.81153767 21 0 C23.64 0 26.28 0 29 0 C29.11728126 3.66639248 29.18760891 7.3322952 29.25 11 C29.28351563 12.02996094 29.31703125 13.05992187 29.3515625 14.12109375 C29.4327447 20.49389657 29.0098752 25.8120213 25 31 C19.96343826 34.1601956 14.82076801 34.94362177 9 34 C3.97247971 31.57934208 1.92612221 29.1809896 0 24 C-0.35846761 19.86729629 -0.28268317 15.76912894 -0.1875 11.625 C-0.17396484 10.50738281 -0.16042969 9.38976562 -0.14648438 8.23828125 C-0.11127164 5.49168789 -0.06202096 2.74609711 0 0 Z " fill="#F2F3F6" transform="translate(1497,279)"/>
<path d="M0 0 C2.31 0 4.62 0 7 0 C7.02505615 0.64549805 7.0501123 1.29099609 7.07592773 1.95605469 C7.19214433 4.88755894 7.31475442 7.81876217 7.4375 10.75 C7.47681641 11.76578125 7.51613281 12.7815625 7.55664062 13.828125 C7.59853516 14.8078125 7.64042969 15.7875 7.68359375 16.796875 C7.72025146 17.69760742 7.75690918 18.59833984 7.79467773 19.52636719 C7.95650925 22.28349101 7.95650925 22.28349101 9 26 C12.63 26 16.26 26 20 26 C20.06058594 24.20691406 20.12117188 22.41382813 20.18359375 20.56640625 C20.26797849 18.23176176 20.35262751 15.89712681 20.4375 13.5625 C20.47681641 12.37849609 20.51613281 11.19449219 20.55664062 9.97460938 C20.59853516 8.84990234 20.64042969 7.72519531 20.68359375 6.56640625 C20.72025146 5.52427979 20.75690918 4.48215332 20.79467773 3.40844727 C21 1 21 1 22 0 C24.33297433 -0.04092937 26.66705225 -0.04241723 29 0 C29.11693501 3.85390817 29.1874962 7.70735512 29.25 11.5625 C29.30027344 13.19155273 29.30027344 13.19155273 29.3515625 14.85351562 C29.43213541 21.48063764 29.08737453 25.67690759 25 31 C19.89176133 34.10500782 14.85472837 34.93846284 9 34 C4.5285993 31.92990708 2.43865291 29.78438365 0.58886719 25.22241211 C-0.63767218 20.59339557 -0.3025297 15.81411136 -0.1875 11.0625 C-0.17396484 9.99708984 -0.16042969 8.93167969 -0.14648438 7.83398438 C-0.11134724 5.22212412 -0.06215184 2.61133366 0 0 Z " fill="#F2F3F6" transform="translate(1378,279)"/>
<path d="M0 0 C2.31 0 4.62 0 7 0 C7 11.22 7 22.44 7 34 C4.69 34 2.38 34 0 34 C0 29.38 0 24.76 0 20 C-4.29 20 -8.58 20 -13 20 C-13 24.29 -13 28.58 -13 33 C-15.31 33 -17.62 33 -20 33 C-20 22.44 -20 11.88 -20 1 C-17.69 1 -15.38 1 -13 1 C-13 5.29 -13 9.58 -13 14 C-8.71 14 -4.42 14 0 14 C0 9.38 0 4.76 0 0 Z " fill="#F7F8FA" transform="translate(854,279)"/>
<path d="M0 0 C2.64 0 5.28 0 8 0 C8.01981934 0.68102783 8.03963867 1.36205566 8.06005859 2.0637207 C8.15526983 5.14703917 8.26496466 8.22967649 8.375 11.3125 C8.4059375 12.38435547 8.436875 13.45621094 8.46875 14.56054688 C8.50742187 15.58857422 8.54609375 16.61660156 8.5859375 17.67578125 C8.6173584 18.62364502 8.6487793 19.57150879 8.68115234 20.5480957 C8.8489051 23.2530269 8.8489051 23.2530269 11 26 C15.59916537 26.5849163 15.59916537 26.5849163 19.69067383 24.7956543 C21.42434417 22.41804002 21.42711883 20.82168864 21.51171875 17.89453125 C21.54716797 16.91162109 21.58261719 15.92871094 21.61914062 14.91601562 C21.64169922 13.89185547 21.66425781 12.86769531 21.6875 11.8125 C21.72166016 10.77673828 21.75582031 9.74097656 21.79101562 8.67382812 C21.87352642 6.1159934 21.94266572 3.55850277 22 1 C24.31 1 26.62 1 29 1 C29.08756305 4.70818297 29.14058015 8.41609763 29.1875 12.125 C29.21263672 13.17171875 29.23777344 14.2184375 29.26367188 15.296875 C29.31723433 20.93878653 29.30811388 25.18251028 26 30 C22.56832843 33.1048457 19.98441341 34.25395072 15.4375 34.375 C10.70140284 34.13660585 7.51060728 33.25164603 3.8125 30.1875 C0.52161912 26.21574721 -0.25211275 22.5640913 -0.1953125 17.48046875 C-0.18564453 15.9480957 -0.18564453 15.9480957 -0.17578125 14.38476562 C-0.15902344 13.32966797 -0.14226562 12.27457031 -0.125 11.1875 C-0.11597656 10.11306641 -0.10695313 9.03863281 -0.09765625 7.93164062 C-0.07415306 5.28753146 -0.04129575 2.64388128 0 0 Z " fill="#F4F5F7" transform="translate(493,279)"/>
<path d="M0 0 C7.92 0 15.84 0 24 0 C24 1.98 24 3.96 24 6 C18.39 6 12.78 6 7 6 C7 8.31 7 10.62 7 13 C11.95 13 16.9 13 22 13 C22 14.98 22 16.96 22 19 C17.05 19 12.1 19 7 19 C7 21.31 7 23.62 7 26 C12.94 26 18.88 26 25 26 C25 27.98 25 29.96 25 32 C16.75 32 8.5 32 0 32 C0 21.44 0 10.88 0 0 Z " fill="#FCFCFD" transform="translate(879,280)"/>
<path d="M0 0 C0.66 0.33 1.32 0.66 2 1 C0.95125002 3.62187494 0.35068687 4.79371361 -2.125 6.25 C-2.74375 6.4975 -3.3625 6.745 -4 7 C-4.99 6.34 -5.98 5.68 -7 5 C-12.50571489 4.45734371 -12.50571489 4.45734371 -17.5 6.375 C-19.8440582 10.47710185 -19.73430028 14.3953253 -19 19 C-17.70558862 21.79504081 -17.70558862 21.79504081 -15 23 C-9.73850886 23.50917656 -5.95395131 22.98158052 -1 21 C-0.01 21.99 0.98 22.98 2 24 C0.9730655 27.30901116 -0.03922107 28.0219638 -3.125 29.75 C-8.63139877 31.82917962 -13.18664399 31.5742294 -18.75 29.8125 C-22.98413259 27.45115682 -24.92910668 24.92760798 -27.25 20.75 C-28.82333642 14.9810998 -28.94305972 9.98677636 -25.9375 4.6875 C-19.24107268 -4.71000724 -9.72802454 -4.96327783 0 0 Z " fill="#F5F5F8" transform="translate(1361,282)"/>
<path d="M0 0 C5.3944591 1.86015831 5.3944591 1.86015831 7.0625 5 C7 7 7 7 5.5625 8.75 C4.7890625 9.36875 4.7890625 9.36875 4 10 C3.34 9.67 2.68 9.34 2 9 C-2.02985632 7.65671456 -4.74421055 7.59468672 -9 8 C-12.31289453 10.12365034 -12.8840656 11.58263615 -13.9375 15.375 C-14.00843699 19.48934542 -13.1442164 21.53626582 -11 25 C-9.43904523 26.56095477 -7.90999105 26.16961928 -5.75 26.1875 C-2.70199019 26.17783911 -1.03973307 26.01677618 1.8125 24.8125 C2.534375 24.544375 3.25625 24.27625 4 24 C6.3125 25.375 6.3125 25.375 8 27 C6.9730655 30.30901116 5.96077893 31.0219638 2.875 32.75 C-2.59242585 34.8144637 -7.14724969 34.56524586 -12.6875 32.875 C-17.38077902 30.21842697 -20.25588922 27.23233234 -22 22 C-22.50442239 16.7325072 -22.6716659 12.36820832 -20.3125 7.5625 C-13.90948259 0.46726449 -9.31887867 -0.73501015 0 0 Z " fill="#F5F6F8" transform="translate(560,279)"/>
<path d="M0 0 C4.29 0 8.58 0 13 0 C15.68487165 2.68487165 15.25769449 4.06476981 15.265625 7.8125 C15.26820313 8.97007812 15.27078125 10.12765625 15.2734375 11.3203125 C15.26570312 12.53460938 15.25796875 13.74890625 15.25 15 C15.25773438 16.21429688 15.26546875 17.42859375 15.2734375 18.6796875 C15.27085937 19.83726562 15.26828125 20.99484375 15.265625 22.1875 C15.26336914 23.25355469 15.26111328 24.31960937 15.25878906 25.41796875 C15 28 15 28 13 30 C8.71 30 4.42 30 0 30 C0 20.1 0 10.2 0 0 Z " fill="#FEFBF6" transform="translate(552,166)"/>
<path d="M0 0 C9.24 0 18.48 0 28 0 C28 2.31 28 4.62 28 7 C24.7 7 21.4 7 18 7 C18 15.91 18 24.82 18 34 C15.36 34 12.72 34 10 34 C10 25.09 10 16.18 10 7 C6.7 7 3.4 7 0 7 C0 4.69 0 2.38 0 0 Z " fill="#E5E7ED" transform="translate(623,279)"/>
<path d="M0 0 C9.24 0 18.48 0 28 0 C28 2.31 28 4.62 28 7 C24.37 7 20.74 7 17 7 C17 15.91 17 24.82 17 34 C14.69 34 12.38 34 10 34 C10 25.09 10 16.18 10 7 C6.7 7 3.4 7 0 7 C0 4.69 0 2.38 0 0 Z " fill="#EEEFF3" transform="translate(1455,279)"/>
<path d="M0 0 C2.64 0 5.28 0 8 0 C8 8.91 8 17.82 8 27 C13.28 27 18.56 27 24 27 C24 29.31 24 31.62 24 34 C16.08 34 8.16 34 0 34 C0 22.78 0 11.56 0 0 Z " fill="#E9EBF0" transform="translate(966,279)"/>
<path d="M0 0 C8.91 0 17.82 0 27 0 C27 2.31 27 4.62 27 7 C23.7 7 20.4 7 17 7 C17 15.58 17 24.16 17 33 C14.69 33 12.38 33 10 33 C10 24.42 10 15.84 10 7 C6.7 7 3.4 7 0 7 C0 4.69 0 2.38 0 0 Z " fill="#F6F7F9" transform="translate(998,279)"/>
<path d="M0 0 C2.8100346 1.79363911 4.50940468 3.01880935 6 6 C6.37712577 10.99691647 6.09290612 13.99067725 3 18 C-0.66908557 20.44605705 -3.73618769 20.83946402 -8 20 C-10.69105198 17.82425584 -12.45532928 16.08934144 -14 13 C-14.39447548 8.81855989 -14.45035186 6.69053952 -12.125 3.125 C-8.51880254 -0.48119746 -4.93573703 -0.70915762 0 0 Z " fill="#1E3066" transform="translate(711,286)"/>
<path d="M0 0 C2.31 0 4.62 0 7 0 C7 8.58 7 17.16 7 26 C12.28 26 17.56 26 23 26 C23 27.98 23 29.96 23 32 C15.41 32 7.82 32 0 32 C0 21.44 0 10.88 0 0 Z " fill="#FEFEFE" transform="translate(1424,280)"/>
<path d="M0 0 C9.26923077 0 9.26923077 0 14 3 C15.87576257 6.75152514 15.65264335 10.92417832 15 15 C12.5625 18.125 12.5625 18.125 9 20 C6.03 20 3.06 20 0 20 C0 13.4 0 6.8 0 0 Z " fill="#1D2F66" transform="translate(455,286)"/>
<path d="M0 0 C4.95 0 9.9 0 15 0 C15.12375 3.58875 15.12375 3.58875 15.25 7.25 C15.28641602 7.99668945 15.32283203 8.74337891 15.36035156 9.51269531 C15.41675544 12.89510871 15.22133013 14.69831742 13.203125 17.44921875 C9.96284397 19.73005486 7.86073473 19.62047523 4 19 C0.99740273 16.16776286 0.0645738 14.58697586 -0.390625 10.44921875 C-0.26041667 6.96614583 -0.13020833 3.48307292 0 0 Z " fill="#EBECF1" transform="translate(961,361)"/>
<path d="M0 0 C2.31 0 4.62 0 7 0 C7 10.89 7 21.78 7 33 C4.69 33 2.38 33 0 33 C0 22.11 0 11.22 0 0 Z " fill="#F6F7F9" transform="translate(666,280)"/>
<path d="M0 0 C2.31 0 4.62 0 7 0 C7 10.56 7 21.12 7 32 C4.69 32 2.38 32 0 32 C0 21.44 0 10.88 0 0 Z " fill="#F6F7F9" transform="translate(1310,280)"/>
<path d="M0 0 C2.4375 1.625 2.4375 1.625 4 4 C4.60024477 7.60146865 4.45562482 9.27859404 2.5 12.375 C-0.54582422 14.35478574 -2.51831477 14.56634411 -6.09375 14.40625 C-8.94809908 13.7979461 -10.28977272 12.28030304 -12 10 C-10.4718543 3.76986755 -10.4718543 3.76986755 -8.8125 1.0625 C-5.7981273 -0.70454606 -3.40013216 -0.41756009 0 0 Z " fill="#F8F8FA" transform="translate(901,372)"/>
<path d="M0 0 C2.97 0 5.94 0 9 0 C9 3.96 9 7.92 9 12 C6.03 12 3.06 12 0 12 C0 8.04 0 4.08 0 0 Z " fill="#FAFBFC" transform="translate(1142,362)"/>
<path d="M0 0 C2.97 0 5.94 0 9 0 C9 3.96 9 7.92 9 12 C6.03 12 3.06 12 0 12 C0 8.04 0 4.08 0 0 Z " fill="#F9F9FB" transform="translate(1030,362)"/>
<path d="M0 0 C1.60332791 -0.08121924 3.20784026 -0.13929134 4.8125 -0.1875 C6.15248047 -0.23970703 6.15248047 -0.23970703 7.51953125 -0.29296875 C10 0 10 0 11.83984375 1.34765625 C13 3 13 3 12.75 5.625 C12 8 12 8 11 9 C9.14712498 9.07226502 7.29166122 9.0838122 5.4375 9.0625 C4.42558594 9.05347656 3.41367188 9.04445313 2.37109375 9.03515625 C1.58863281 9.02355469 0.80617188 9.01195312 0 9 C0 6.03 0 3.06 0 0 Z " fill="#1F3066" transform="translate(1550,286)"/>
<path d="M0 0 C1.60332791 -0.08121924 3.20784026 -0.13929134 4.8125 -0.1875 C6.15248047 -0.23970703 6.15248047 -0.23970703 7.51953125 -0.29296875 C10 0 10 0 11.83984375 1.34765625 C13 3 13 3 12.75 5.625 C12 8 12 8 11 9 C9.14712498 9.07226502 7.29166122 9.0838122 5.4375 9.0625 C4.42558594 9.05347656 3.41367188 9.04445313 2.37109375 9.03515625 C1.58863281 9.02355469 0.80617188 9.01195312 0 9 C0 6.03 0 3.06 0 0 Z " fill="#1F3167" transform="translate(1273,286)"/>
<path d="M0 0 C2.64 0 5.28 0 8 0 C8.38271922 4.78399028 8.40139256 8.1526157 6.3125 12.5625 C4 15 4 15 1.25 15.375 C0.5075 15.25125 -0.235 15.1275 -1 15 C-0.625 13.0625 -0.625 13.0625 0 11 C0.66 10.67 1.32 10.34 2 10 C2.33 9.01 2.66 8.02 3 7 C2.01 7 1.02 7 0 7 C0 4.69 0 2.38 0 0 Z " fill="#EFF0F4" transform="translate(786,305)"/>
<path d="M0 0 C1 1 1 1 1.1875 3.9375 C1 7 1 7 -1 9 C-4.625 8.625 -4.625 8.625 -8 8 C-9.32278481 2.58860759 -9.32278481 2.58860759 -7.9375 0.0625 C-5.06369928 -1.51345523 -3.08587291 -0.80501033 0 0 Z " fill="#233469" transform="translate(1181,383)"/>
<path d="M0 0 C3.0625 0.1875 3.0625 0.1875 5.0625 2.1875 C4.6875 5.8125 4.6875 5.8125 4.0625 9.1875 C-1.34889241 10.51028481 -1.34889241 10.51028481 -3.875 9.125 C-5.45095523 6.25119928 -4.74251033 4.27337291 -3.9375 1.1875 C-2.9375 0.1875 -2.9375 0.1875 0 0 Z " fill="#24356A" transform="translate(1176.9375,360.8125)"/>
<path d="M0 0 C2.97 0 5.94 0 9 0 C9 2.64 9 5.28 9 8 C6.03 8 3.06 8 0 8 C0 5.36 0 2.72 0 0 Z " fill="#F8F9FA" transform="translate(864,362)"/>
<path d="M0 0 C3.44216672 2.6598561 3.99504674 5.90288286 5 10 C2.36 10 -0.28 10 -3 10 C-2.49287967 6.28111761 -1.88391785 3.26545761 0 0 Z " fill="#324273" transform="translate(597,289)"/>
<path d="M0 0 C2.86697492 1.28519565 4.97607712 2.57129254 7 5 C7 5.66 7 6.32 7 7 C3.625 7.625 3.625 7.625 0 8 C-0.66 7.34 -1.32 6.68 -2 6 C-1.44444444 1.44444444 -1.44444444 1.44444444 0 0 Z " fill="#28396D" transform="translate(1116,299)"/>
<path d="M0 0 C2.83374881 3.20336822 3.5205537 5.78087253 4 10 C1.36 10 -1.28 10 -4 10 C-3.52449439 8.51965236 -3.04448784 7.04074979 -2.5625 5.5625 C-2.29566406 4.73878906 -2.02882813 3.91507812 -1.75390625 3.06640625 C-1 1 -1 1 0 0 Z " fill="#2F3F72" transform="translate(1189,289)"/>
<path d="M0 0 C2.83374881 3.20336822 3.5205537 5.78087253 4 10 C1.36 10 -1.28 10 -4 10 C-3.52449439 8.51965236 -3.04448784 7.04074979 -2.5625 5.5625 C-2.29566406 4.73878906 -2.02882813 3.91507812 -1.75390625 3.06640625 C-1 1 -1 1 0 0 Z " fill="#2F3F72" transform="translate(934,289)"/>
<path d="M0 0 C2.29160319 -0.02692484 4.58329546 -0.04636124 6.875 -0.0625 C8.15117188 -0.07410156 9.42734375 -0.08570313 10.7421875 -0.09765625 C14 0 14 0 16 1 C16 1.66 16 2.32 16 3 C10.72 2.67 5.44 2.34 0 2 C0 1.34 0 0.68 0 0 Z " fill="#B7D6CB" transform="translate(96,213)"/>
<path d="M0 0 C1.65 0 3.3 0 5 0 C5.6875 1.8125 5.6875 1.8125 6 4 C4.5625 5.75 4.5625 5.75 3 7 C2.01 6.67 1.02 6.34 0 6 C0 4.02 0 2.04 0 0 Z " fill="#27386C" transform="translate(1118,285)"/>
<path d="M0 0 C-1.95519384 1.17192047 -3.9142539 2.3373929 -5.875 3.5 C-6.96554687 4.1496875 -8.05609375 4.799375 -9.1796875 5.46875 C-12 7 -12 7 -14 7 C-14.33 7.66 -14.66 8.32 -15 9 C-14.87109375 6.6796875 -14.87109375 6.6796875 -14 4 C-11.34765625 2.3828125 -11.34765625 2.3828125 -8.0625 1.125 C-6.98097656 0.69445312 -5.89945312 0.26390625 -4.78515625 -0.1796875 C-2 -1 -2 -1 0 0 Z " fill="#DCDFE7" transform="translate(332,173)"/>
<path d="M0 0 C0.33 0.66 0.66 1.32 1 2 C-0.07421875 4.56640625 -0.07421875 4.56640625 -1.6875 7.5625 C-2.46673828 9.04943359 -2.46673828 9.04943359 -3.26171875 10.56640625 C-5 13 -5 13 -7.20703125 13.83984375 C-7.79871094 13.89269531 -8.39039063 13.94554687 -9 14 C-7.65070536 10.16336928 -5.92248975 7.34827431 -3.375 4.1875 C-2.42753906 3.00220703 -2.42753906 3.00220703 -1.4609375 1.79296875 C-0.97882813 1.20128906 -0.49671875 0.60960938 0 0 Z " fill="#DEE1E8" transform="translate(240,126)"/>
<path d="M0 0 C3.30616284 3.80208727 7 9.83581485 7 15 C6.01 15.33 5.02 15.66 4 16 C3.32815382 13.89748139 2.66269032 11.79292237 2 9.6875 C1.443125 7.92986328 1.443125 7.92986328 0.875 6.13671875 C0 3 0 3 0 0 Z " fill="#FDEFDB" transform="translate(154,57)"/>
<path d="M0 0 C-6.93 3.465 -6.93 3.465 -14 7 C-14 5.68 -14 4.36 -14 3 C-12.04486839 2.303447 -10.08577524 1.61800435 -8.125 0.9375 C-7.03445313 0.55464844 -5.94390625 0.17179688 -4.8203125 -0.22265625 C-2 -1 -2 -1 0 0 Z " fill="#FDEDD5" transform="translate(278,157)"/>
<path d="M0 0 C1.15210474 3.45631421 0.80762372 4.63260656 -0.1875 8.0625 C-0.42855469 8.94035156 -0.66960937 9.81820312 -0.91796875 10.72265625 C-2.20408935 13.42954546 -3.23753912 13.98766962 -6 15 C-4.36041242 9.76727367 -2.61047965 4.84803364 0 0 Z " fill="#FDF1DF" transform="translate(228,58)"/>
<path d="M0 0 C2.95929119 2.75520215 5.03681826 5.46627288 7 9 C6.01 9.33 5.02 9.66 4 10 C3.32845067 8.71086513 2.66291141 7.41859796 2 6.125 C1.62875 5.40570313 1.2575 4.68640625 0.875 3.9453125 C0 2 0 2 0 0 Z " fill="#CBCEDB" transform="translate(142,125)"/>
<path d="M0 0 C0.33 0 0.66 0 1 0 C1.24954005 1.43410368 1.47392642 2.87260072 1.6875 4.3125 C1.87892578 5.51326172 1.87892578 5.51326172 2.07421875 6.73828125 C2 9 2 9 -1 12 C-0.67 8.04 -0.34 4.08 0 0 Z " fill="#C9E0D7" transform="translate(191,116)"/>
</svg>
