<svg width="36" height="33" viewBox="0 0 36 33" fill="none" xmlns="http://www.w3.org/2000/svg">
<path d="M10.4979 32.0521C9.57153 32.0521 8.77917 31.7222 8.12083 31.0625C7.4625 30.4028 7.13264 29.6118 7.13125 28.6896V23.7187H3.36458C2.43958 23.7187 1.64792 23.3889 0.989584 22.7292C0.33125 22.0694 0.00138889 21.2778 0 20.3542V12.5C0 11.3194 0.400694 10.3306 1.20208 9.53333C2.00347 8.73333 2.99167 8.33333 4.16667 8.33333H30.9292C32.1097 8.33333 33.0993 8.73333 33.8979 9.53333C34.6965 10.3333 35.0958 11.3222 35.0958 12.5V20.3542C35.0958 21.2792 34.7667 22.0708 34.1083 22.7292C33.45 23.3875 32.6576 23.7174 31.7313 23.7187H27.9646V28.6875C27.9646 29.6125 27.6347 30.4042 26.975 31.0625C26.3153 31.7208 25.5236 32.0507 24.6 32.0521H10.4979ZM27.9646 6.73125H7.13125V3.35833C7.13125 2.43195 7.46111 1.64028 8.12083 0.983334C8.77917 0.327778 9.57083 0 10.4958 0H24.6C25.525 0 26.3167 0.329862 26.975 0.989584C27.6347 1.64931 27.9646 2.44097 27.9646 3.36458V6.73125ZM29.2479 15.6271C29.8382 15.6271 30.3326 15.4271 30.7312 15.0271C31.1299 14.6271 31.3299 14.1326 31.3312 13.5438C31.3326 12.9549 31.1326 12.4597 30.7312 12.0583C30.3299 11.6569 29.8354 11.4569 29.2479 11.4583C28.6604 11.4597 28.1653 11.6597 27.7625 12.0583C27.3597 12.4569 27.1604 12.9521 27.1646 13.5438C27.1687 14.1354 27.3681 14.6299 27.7625 15.0271C28.1569 15.4243 28.6521 15.6243 29.2479 15.6271ZM10.4979 29.9687H24.6C24.9736 29.9687 25.2806 29.8486 25.5208 29.6083C25.7611 29.3681 25.8812 29.0611 25.8812 28.6875V21.7958C25.8812 21.4208 25.7611 21.1139 25.5208 20.875C25.2806 20.6347 24.9736 20.5146 24.6 20.5146H10.4958C10.1222 20.5146 9.81528 20.634 9.575 20.8729C9.33472 21.1146 9.21458 21.4222 9.21458 21.7958V28.6875C9.21458 29.0611 9.33472 29.3681 9.575 29.6083C9.81528 29.8486 10.1229 29.9687 10.4979 29.9687Z" fill="#006F47"/>
</svg>
